<svg width="1440" height="253" viewBox="0 0 1440 253" fill="none" xmlns="http://www.w3.org/2000/svg">
<path opacity="0.11" d="M1416.14 2.77224L1404.95 0.944702M1416.14 2.77224H1382.99M1416.14 2.77224L1427.69 4.66014M1416.14 2.77224H1439.61M1404.95 0.944702L1409.02 0.945415L1413.05 0.949372L1416.99 0.960498L1420.81 0.98241L1424.47 1.01797L1427.92 1.07149L1431.12 1.14585L1434.1 1.24066L1436.65 1.37177L1438.97 1.52371L1439.61 1.57693V2.77224M1404.95 0.944702H1372.33M1372.33 0.944702H1339.72M1372.33 0.944702L1382.99 2.77224M1339.72 0.944702H1307.1M1339.72 0.944702L1349.84 2.77224M1307.1 0.944702H1274.48M1307.1 0.944702L1316.69 2.77224M1274.48 0.944702H1241.87M1274.48 0.944702L1283.54 2.77224M1241.87 0.944702H1209.25M1241.87 0.944702L1250.39 2.77224M1209.25 0.944702H1176.63M1209.25 0.944702L1217.24 2.77224M1176.63 0.944702H1144.02M1176.63 0.944702L1184.09 2.77224M1144.02 0.944702H1111.4M1144.02 0.944702L1150.94 2.77224M1111.4 0.944702H1078.78M1111.4 0.944702L1117.79 2.77224M1078.78 0.944702H1046.17M1078.78 0.944702L1084.64 2.77224M1046.17 0.944702H1013.55M1046.17 0.944702L1051.49 2.77224M1013.55 0.944702H980.933M1013.55 0.944702L1014.73 1.3962L1016.53 2.07974L1018.34 2.77224M980.933 0.944702H948.317M980.933 0.944702L981.985 1.3962L985.194 2.77224M948.317 0.944702H915.7M948.317 0.944702L952.045 2.77224M915.7 0.944702H883.083M915.7 0.944702L916.886 1.6232L918.088 2.30961L918.491 2.54057L918.896 2.77224M883.083 0.944702H850.467M883.083 0.944702L884.072 1.6232L884.405 1.85093L884.738 2.07974L885.747 2.77224M850.467 0.944702H817.85M850.467 0.944702L852.598 2.77224M817.85 0.944702L818.047 1.16991L818.244 1.3962L819.245 2.54057L819.448 2.77224M817.85 0.944702H785.234M785.234 0.944702H752.616M785.234 0.944702L786.299 2.77224M752.616 0.944702H720M752.616 0.944702L752.814 1.6232L753.149 2.77224M720 0.944702H687.384M720 0.944702V2.77224M687.384 0.944702H654.766M687.384 0.944702L687.186 1.6232L686.851 2.77224M654.766 0.944702H622.15M654.766 0.944702L653.701 2.77224M622.15 0.944702L621.953 1.16991L621.756 1.3962L620.755 2.54057L620.552 2.77224M622.15 0.944702H589.534M589.534 0.944702H556.916M589.534 0.944702L587.673 2.54057L587.402 2.77224M556.916 0.944702H524.3M556.916 0.944702L555.928 1.6232L555.596 1.85093L554.927 2.30961L554.591 2.54057L554.253 2.77224M524.3 0.944702H491.683M524.3 0.944702L523.114 1.6232L521.913 2.30961L521.509 2.54057L521.104 2.77224M491.683 0.944702H459.067M491.683 0.944702L487.955 2.77224M459.067 0.944702H426.45M459.067 0.944702L458.015 1.3962L454.806 2.77224M426.45 0.944702H393.833M426.45 0.944702L421.656 2.77224M393.833 0.944702H361.217M393.833 0.944702L388.507 2.77224M361.217 0.944702H328.6M361.217 0.944702L355.357 2.77224M328.6 0.944702H295.983M328.6 0.944702L322.208 2.77224M295.983 0.944702H263.367M295.983 0.944702L289.059 2.77224M263.367 0.944702H230.75M263.367 0.944702L255.909 2.77224M230.75 0.944702H198.133M230.75 0.944702L222.76 2.77224M198.133 0.944702H165.517M198.133 0.944702L189.61 2.77224M165.517 0.944702H132.9M165.517 0.944702L156.461 2.77224M132.9 0.944702H100.283M132.9 0.944702L123.312 2.77224M100.283 0.944702H67.6668M100.283 0.944702L90.163 2.77224M67.6668 0.944702H35.0504M67.6668 0.944702L57.0136 2.77224M35.0504 0.944702L30.9801 0.945415L26.9517 0.949372L23.0074 0.960498L19.1867 0.98241L15.5316 1.01797L12.0812 1.07149L8.87672 1.14585L5.90232 1.24066L3.34995 1.37177L1.0262 1.52371L0.387546 1.57694V2.77224M35.0504 0.944702L23.8641 2.77224M90.163 2.77224H123.312M90.163 2.77224H57.0136M90.163 2.77224L79.7053 4.66014M123.312 2.77224L113.405 4.66014M123.312 2.77224H156.461M222.76 2.77224H255.909M222.76 2.77224H189.61M222.76 2.77224L220.722 3.23847L214.504 4.66014M255.909 2.77224L248.204 4.66014M255.909 2.77224H289.059M355.357 2.77224H388.507M355.357 2.77224H322.208M355.357 2.77224L353.863 3.23847L353.11 3.47266L349.303 4.66014M388.507 2.77224L387.828 3.00464L387.148 3.23847L383.003 4.66014M388.507 2.77224H421.656M487.955 2.77224L487.48 3.00464L484.102 4.66014M487.955 2.77224H521.104M487.955 2.77224H454.806M521.104 2.77224L520.289 3.23847L519.878 3.47266L519.467 3.70829L517.802 4.66014M521.104 2.77224H554.253M620.552 2.77224H653.701M620.552 2.77224H587.402M620.552 2.77224L618.901 4.66014M653.701 2.77224L653.566 3.00464L653.43 3.23847L653.293 3.47266L652.879 4.18206L652.601 4.66014M653.701 2.77224H686.851M753.149 2.77224H786.299M753.149 2.77224H720M753.149 2.77224L753.7 4.66014M786.299 2.77224L786.434 3.00464L786.57 3.23847L786.707 3.47266L787.399 4.66014M786.299 2.77224H819.448M885.747 2.77224H918.896M885.747 2.77224H852.598M885.747 2.77224L886.426 3.23847L887.802 4.18206L888.149 4.42056L888.499 4.66014M918.896 2.77224L919.711 3.23847L920.122 3.47266L920.534 3.70829L922.198 4.66014M918.896 2.77224H952.045M1018.34 2.77224H1051.49M1018.34 2.77224H985.194M1018.34 2.77224L1019.57 3.23847L1020.18 3.47266L1023.3 4.66014M1051.49 2.77224L1052.17 3.00464L1052.85 3.23847L1057 4.66014M1051.49 2.77224H1084.64M1150.94 2.77224H1184.09M1150.94 2.77224H1117.79M1150.94 2.77224L1152.71 3.23847L1153.6 3.47266L1158.1 4.66014M1184.09 2.77224L1191.8 4.66014M1184.09 2.77224H1217.24M1283.54 2.77224H1316.69M1283.54 2.77224H1250.39M1283.54 2.77224L1292.89 4.66014M1316.69 2.77224L1326.6 4.66014M1316.69 2.77224H1349.84M0.271359 19.8624H0.387546M33.6366 19.8624L46.2928 17.4505M33.6366 19.8624L20.4955 22.3667M33.6366 19.8624H71.7679M33.6366 19.8624H0.387546M46.2928 17.4505H8.86473M46.2928 17.4505L58.491 15.1258M46.2928 17.4505H83.7209M8.86473 17.4505L21.7405 15.1258M8.86473 17.4505H0.387546M8.86473 17.4505L0.387546 18.9806M46.1414 10.72H81.6078M46.1414 10.72L57.7137 8.6306M46.1414 10.72H10.6758M46.1414 10.72L34.1576 12.8837M81.6078 10.72L92.5714 8.6306M81.6078 10.72L70.2552 12.8837M81.6078 10.72H117.074M57.7137 8.6306H92.5714M57.7137 8.6306L68.8954 6.61196M57.7137 8.6306H22.8567M92.5714 8.6306H127.428M92.5714 8.6306L103.164 6.61196M0.0224927 57.9327H0.387546M30.7904 57.9327L47.1106 53.9339M30.7904 57.9327L13.6591 62.1305M30.7904 57.9327H80.0202M30.7904 57.9327H0.387546M47.1106 53.9339L62.676 50.12M47.1106 53.9339H95.174M47.1106 53.9339H0.387546M15.7243 50.12H62.676M15.7243 50.12L31.6472 46.4786M15.7243 50.12H0.387546M15.7243 50.12L0.387546 53.6274M46.8655 42.998H91.7409M46.8655 42.998L61.4257 39.6684M46.8655 42.998H1.99018M46.8655 42.998L31.6472 46.4786M91.7409 42.998L105.331 39.6684M91.7409 42.998L77.5368 46.4786M91.7409 42.998H136.617M61.4257 39.6684H105.331M61.4257 39.6684H17.5211M61.4257 39.6684L75.3697 36.4795M105.331 39.6684L118.345 36.4795M105.331 39.6684H149.236M101.558 30.4904H142.787M101.558 30.4904L113.87 27.6747M101.558 30.4904H60.3283M101.558 30.4904L88.735 33.4228M142.787 30.4904L154.278 27.6747M142.787 30.4904L130.82 33.4228M142.787 30.4904H184.017M113.87 27.6747H154.278M113.87 27.6747H73.4612M113.87 27.6747L125.701 24.969M154.278 27.6747L165.321 24.969M154.278 27.6747H194.687M148.03 19.8624H186.162M148.03 19.8624L158.577 17.4505M148.03 19.8624H109.899M148.03 19.8624L137.079 22.3667M186.162 19.8624L196.005 17.4505M186.162 19.8624L175.941 22.3667M186.162 19.8624H224.293M158.577 17.4505H196.005M158.577 17.4505H121.149M158.577 17.4505L168.742 15.1258M196.005 17.4505L205.493 15.1258M196.005 17.4505H233.433M188.006 10.72H223.473M188.006 10.72L197.142 8.6306M188.006 10.72H152.541M188.006 10.72L178.546 12.8837M223.473 10.72L231.999 8.6306M223.473 10.72L214.642 12.8837M223.473 10.72H258.939M197.142 8.6306H231.999M197.142 8.6306L205.97 6.61196M197.142 8.6306H162.285M231.999 8.6306H266.857M231.999 8.6306L240.239 6.61196M25.6092 127.261L48.5784 119.382M25.6092 127.261L1.01196 135.699M25.6092 127.261H95.0481M25.6092 127.261H0.387546M48.5784 119.382L70.0775 112.007M48.5784 119.382H115.72M48.5784 119.382H0.387546M48.1121 98.5881H109.193M48.1121 98.5881L67.7403 92.4672M48.1121 98.5881L27.2658 105.089M48.1121 98.5881H0.387546M109.193 98.5881L127.036 92.4672M109.193 98.5881L90.2417 105.089M109.193 98.5881H170.274M67.7403 92.4672H127.036M67.7403 92.4672H8.44421M67.7403 92.4672L86.2546 86.6933M127.036 92.4672L143.868 86.6933M127.036 92.4672H186.333M120.298 76.0764H174.817M120.298 76.0764L135.985 71.1846M120.298 76.0764H65.7801M120.298 76.0764L103.746 81.2386M174.817 76.0764L189.077 71.1846M174.817 76.0764L159.769 81.2386M174.817 76.0764H229.335M135.985 71.1846H189.077M135.985 71.1846H82.8926M135.985 71.1846L150.871 66.5421M189.077 71.1846L202.611 66.5421M189.077 71.1846H242.169M178.478 57.9327H227.708M178.478 57.9327L191.301 53.9339M178.478 57.9327H129.249M178.478 57.9327L165.018 62.1305M227.708 57.9327L239.365 53.9339M227.708 57.9327L215.471 62.1305M227.708 57.9327H276.937M191.301 53.9339H239.365M191.301 53.9339H143.238M191.301 53.9339L203.531 50.12M239.365 53.9339L250.483 50.12M239.365 53.9339H287.428M226.368 42.998H271.244M226.368 42.998L237.046 39.6684M226.368 42.998H181.492M226.368 42.998L215.208 46.4786M271.244 42.998L280.951 39.6684M271.244 42.998L261.098 46.4786M271.244 42.998H316.119M237.046 39.6684H280.951M237.046 39.6684H193.141M237.046 39.6684L247.271 36.4795M280.951 39.6684L290.247 36.4795M280.951 39.6684H324.856M266.476 30.4904H307.705M266.476 30.4904L275.504 27.6747M266.476 30.4904H225.246M266.476 30.4904L257.073 33.4228M307.705 30.4904L308.75 30.1323L315.913 27.6747M307.705 30.4904L299.157 33.4228M307.705 30.4904H348.935M275.504 27.6747H315.913M275.504 27.6747H235.096M275.504 27.6747L284.181 24.969M315.913 27.6747L323.801 24.969M315.913 27.6747H356.322M300.555 19.8624H338.687M300.555 19.8624L308.29 17.4505M300.555 19.8624H262.424M300.555 19.8624L292.525 22.3667M338.687 19.8624L345.718 17.4505M338.687 19.8624L335.982 20.7905L331.386 22.3667M338.687 19.8624H376.818M308.29 17.4505H345.718M308.29 17.4505H270.862M308.29 17.4505L315.744 15.1258M345.718 17.4505L352.495 15.1258M345.718 17.4505H383.146M329.871 10.72H365.338M329.871 10.72L336.571 8.6306M329.871 10.72H294.405M329.871 10.72L322.934 12.8837M365.338 10.72L369.926 9.14639L370.678 8.88778L371.429 8.6306M365.338 10.72L359.03 12.8837M365.338 10.72H400.804M336.571 8.6306H371.429M336.571 8.6306L343.045 6.61196M336.571 8.6306H301.714M371.429 8.6306H406.286M371.429 8.6306L377.313 6.61196M50.7679 217.019H146.373M50.7679 217.019L80.8717 202.267M50.7679 217.019L17.6882 233.23M50.7679 217.019L0.387546 217.019M146.373 217.019L172.176 202.267M146.373 217.019L118.019 233.23M146.373 217.019H241.977M80.8717 202.267H172.176M80.8717 202.267L108.384 188.784M80.8717 202.267H0.387546M172.176 202.267L195.758 188.784M172.176 202.267H263.48M156.866 165.025H237.314M156.866 165.025L178.334 154.504M156.866 165.025H76.4183M156.866 165.025L133.625 176.414M237.314 165.025L255.715 154.504M237.314 165.025L217.393 176.414M237.314 165.025H317.761M178.334 154.504H255.715M178.334 154.504H100.953M178.334 154.504L198.226 144.756M255.715 154.504L272.765 144.756M255.715 154.504H333.096M233.927 127.261H303.365M233.927 127.261L250.005 119.382M233.927 127.261H164.487M233.927 127.261L216.708 135.699M303.365 127.261L317.147 119.382M303.365 127.261L288.607 135.699M303.365 127.261H372.804M250.005 119.382H317.147M250.005 119.382H182.863M250.005 119.382L265.054 112.007M317.147 119.382L330.047 112.007M317.147 119.382H384.29M292.435 98.5881H353.516M292.435 98.5881L304.926 92.4672M292.435 98.5881H231.355M292.435 98.5881L279.169 105.089M353.516 98.5881L364.222 92.4672M353.516 98.5881L342.145 105.089M353.516 98.5881H414.597M304.926 92.4672H364.222M304.926 92.4672H245.629M304.926 92.4672L316.707 86.6933M364.222 92.4672L374.321 86.6933M364.222 92.4672H423.518M338.372 76.0764H392.89M338.372 76.0764L348.354 71.1846M338.372 76.0764H283.853M338.372 76.0764L327.838 81.2386M392.89 76.0764L401.446 71.1846M392.89 76.0764L383.862 81.2386M392.89 76.0764H447.409M348.354 71.1846H401.446M348.354 71.1846H295.262M348.354 71.1846L357.827 66.5421M401.446 71.1846L409.566 66.5421M401.446 71.1846H454.539M375.396 57.9327H424.625M375.396 57.9327L383.556 53.9339M375.396 57.9327H326.166M375.396 57.9327L366.83 62.1305M424.625 57.9327L431.619 53.9339M424.625 57.9327L417.282 62.1305M424.625 57.9327H473.854M383.556 53.9339H431.619M383.556 53.9339H335.492M383.556 53.9339L391.338 50.12M431.619 53.9339L438.29 50.12M431.619 53.9339H479.682M405.87 42.998H450.747M405.87 42.998L412.666 39.6684M405.87 42.998H360.995M405.87 42.998L398.769 46.4786M450.747 42.998L456.57 39.6684M450.747 42.998L444.659 46.4786M450.747 42.998H495.622M412.666 39.6684H456.57M412.666 39.6684H368.76M412.666 39.6684L419.173 36.4795M456.57 39.6684L462.148 36.4795M456.57 39.6684H500.476M431.393 30.4904H472.624M431.393 30.4904L437.139 27.6747M431.393 30.4904H390.164M431.393 30.4904L425.409 33.4228M472.624 30.4904L471.993 30.8503L467.494 33.4228M472.624 30.4904L477.548 27.6747M472.624 30.4904H513.853M437.139 27.6747H477.548M437.139 27.6747H396.731M437.139 27.6747L442.661 24.969M477.548 27.6747L482.281 24.969M477.548 27.6747H517.957M453.081 19.8624H491.212M453.081 19.8624L458.003 17.4505M453.081 19.8624H414.95M453.081 19.8624L447.971 22.3667M491.212 19.8624L495.431 17.4505M491.212 19.8624L489.589 20.7905L488.494 21.4166L486.832 22.3667M491.212 19.8624H529.343M458.003 17.4505H495.431M458.003 17.4505H420.575M458.003 17.4505L462.746 15.1258M495.431 17.4505L496.973 16.5686L497.99 15.9875L499.497 15.1258M495.431 17.4505H532.859M471.737 10.72H507.202M471.737 10.72L474.948 9.14639L476 8.6306M471.737 10.72H436.27M471.737 10.72L467.882 12.609L467.322 12.8837M507.202 10.72L509.956 9.14639L510.407 8.88778L510.857 8.6306M507.202 10.72L505.327 11.7922L503.418 12.8837M507.202 10.72H542.669M476 8.6306H510.857M476 8.6306L480.119 6.61196M476 8.6306H441.143M510.857 8.6306H545.714M510.857 8.6306L514.388 6.61196M433.186 217.019H528.791M433.186 217.019L446.088 202.267M433.186 217.019H337.582M433.186 217.019L419.009 233.23M528.791 217.019L537.392 202.267M528.791 217.019L519.34 233.23M528.791 217.019H624.396M446.088 202.267H537.392M446.088 202.267H354.784M446.088 202.267L457.879 188.784M537.392 202.267L545.253 188.784M537.392 202.267H628.696M478.657 165.025H559.104M478.657 165.025L487.858 154.504M478.657 165.025H398.209M478.657 165.025L468.696 176.414M559.104 165.025L565.238 154.504M559.104 165.025L552.465 176.414M559.104 165.025H639.553M487.858 154.504H565.238M487.858 154.504H410.477M487.858 154.504L496.383 144.756M565.238 154.504L570.922 144.756M565.238 154.504H642.619M511.683 127.261H581.122M511.683 127.261L518.574 119.382M511.683 127.261H442.244M511.683 127.261L504.304 135.699M581.122 127.261L585.716 119.382M581.122 127.261L576.203 135.699M581.122 127.261H650.561M518.574 119.382H585.716M518.574 119.382H451.432M518.574 119.382L525.023 112.007M585.716 119.382L590.016 112.007M585.716 119.382H652.858M536.758 98.5881H597.838M536.758 98.5881L542.111 92.4672M536.758 98.5881H475.677M536.758 98.5881L531.073 105.089M597.838 98.5881L601.407 92.4672M597.838 98.5881L594.048 105.089M597.838 98.5881H658.919M542.111 92.4672H601.407M542.111 92.4672H482.815M542.111 92.4672L547.16 86.6933M601.407 92.4672L604.774 86.6933M601.407 92.4672H660.704M556.445 76.0764H610.964M556.445 76.0764L560.723 71.1846M556.445 76.0764H501.927M556.445 76.0764L551.931 81.2386M610.964 76.0764L613.815 71.1846M610.964 76.0764L607.954 81.2386M610.964 76.0764H665.482M560.723 71.1846H613.815M560.723 71.1846H507.631M560.723 71.1846L564.783 66.5421M613.815 71.1846L616.522 66.5421M613.815 71.1846H666.908M572.312 57.9327H621.541M572.312 57.9327L575.809 53.9339M572.312 57.9327H523.083M572.312 57.9327L568.642 62.1305M621.541 57.9327L623.873 53.9339M621.541 57.9327L619.094 62.1305M621.541 57.9327H670.771M575.809 53.9339H623.873M575.809 53.9339H527.746M575.809 53.9339L577.079 52.4828L579.145 50.12M623.873 53.9339L626.097 50.12M623.873 53.9339H671.937M585.373 42.998H630.249M585.373 42.998L588.286 39.6684M585.373 42.998H540.497M585.373 42.998L583.104 45.5939L582.329 46.4786M630.249 42.998L630.987 41.7323L632.19 39.6684M630.249 42.998L628.219 46.4786M630.249 42.998H675.125M588.286 39.6684L588.64 39.2621L591.074 36.4795M588.286 39.6684H632.19M588.286 39.6684H544.38M632.19 39.6684L632.897 38.4565L633.129 38.0567L633.362 37.6594L634.049 36.4795M632.19 39.6684H676.095M596.311 30.4904H637.541M596.311 30.4904L597.555 29.0684L597.862 28.7175L598.167 28.368L598.472 28.0206L598.774 27.6747M596.311 30.4904H555.082M596.311 30.4904L593.747 33.4228M637.541 30.4904L638.778 28.368L638.981 28.0206L639.182 27.6747M637.541 30.4904L635.832 33.4228M637.541 30.4904H678.771M598.774 27.6747H639.182M598.774 27.6747H558.365M598.774 27.6747L600.264 25.9711L600.557 25.6353L601.14 24.969M639.182 27.6747L640.176 25.9711L640.372 25.6353L640.566 25.3012L640.76 24.969M639.182 27.6747H679.592M605.606 19.8624H643.738M605.606 19.8624L607.716 17.4505M605.606 19.8624H567.474M605.606 19.8624L605.066 20.4795L604.247 21.4166L603.416 22.3667M643.738 19.8624L643.558 20.1702L642.463 22.0484L642.277 22.3667M643.738 19.8624L645.144 17.4505M643.738 19.8624H681.869M607.716 17.4505H645.144M607.716 17.4505H570.288M607.716 17.4505L609.749 15.1258M645.144 17.4505L645.658 16.5686L645.828 16.2773L645.997 15.9875L646.499 15.1258M645.144 17.4505H682.572M613.602 10.72H649.067M613.602 10.72L614.978 9.14639L615.428 8.6306M613.602 10.72H578.135M613.602 10.72L612.899 11.5224L612.664 11.7922L612.426 12.0634L611.709 12.8837M649.067 10.72L649.222 10.4549L649.529 9.92798L649.834 9.40573L650.285 8.6306M649.067 10.72L648.442 11.7922L648.285 12.0634L647.966 12.609L647.806 12.8837M649.067 10.72H684.534M615.428 8.6306H650.285M615.428 8.6306L616.976 6.86053L617.194 6.61196M615.428 8.6306H580.571M650.285 8.6306L650.435 8.3745L650.584 8.11947L650.732 7.86552L650.879 7.61266L651.318 6.86053L651.463 6.61196M650.285 8.6306H685.143M815.604 217.019H911.209M815.604 217.019L811.304 202.267M815.604 217.019H720M815.604 217.019L820.33 233.23M911.209 217.019L902.608 202.267M911.209 217.019L920.66 233.23M911.209 217.019H1006.81M811.304 202.267H902.608M811.304 202.267H720M811.304 202.267L807.374 188.784M902.608 202.267L894.747 188.784M902.608 202.267H993.912M800.447 165.025H880.896M800.447 165.025L797.381 154.504M800.447 165.025H720M800.447 165.025L803.768 176.414M880.896 165.025L874.762 154.504M880.896 165.025L887.536 176.414M880.896 165.025H961.343M797.381 154.504H874.762M797.381 154.504H720M797.381 154.504L794.539 144.756M874.762 154.504L869.078 144.756M874.762 154.504H952.142M789.439 127.261H858.878M789.439 127.261L787.142 119.382M789.439 127.261H720M789.439 127.261L791.899 135.699M858.878 127.261L854.284 119.382M858.878 127.261L863.797 135.699M858.878 127.261H928.317M787.142 119.382H854.284M787.142 119.382H720M787.142 119.382L784.992 112.007M854.284 119.382L849.985 112.007M854.284 119.382H921.426M781.081 98.5881H842.162M781.081 98.5881L779.296 92.4672M781.081 98.5881H720M781.081 98.5881L782.976 105.089M842.162 98.5881L838.593 92.4672M842.162 98.5881L845.952 105.089M842.162 98.5881H903.242M779.296 92.4672H838.593M779.296 92.4672H720M779.296 92.4672L777.613 86.6933M838.593 92.4672L835.226 86.6933M838.593 92.4672H897.889M774.518 76.0764H829.036M774.518 76.0764L773.092 71.1846M774.518 76.0764H720M774.518 76.0764L776.023 81.2386M829.036 76.0764L826.185 71.1846M829.036 76.0764L832.046 81.2386M829.036 76.0764H883.555M773.092 71.1846H826.185M773.092 71.1846H720M773.092 71.1846L771.739 66.5421M826.185 71.1846L823.478 66.5421M826.185 71.1846H879.277M769.229 57.9327H818.459M769.229 57.9327L768.063 53.9339M769.229 57.9327H720M769.229 57.9327L770.453 62.1305M818.459 57.9327L816.127 53.9339M818.459 57.9327L820.906 62.1305M818.459 57.9327H867.688M768.063 53.9339H816.127M768.063 53.9339H720M768.063 53.9339L766.952 50.12M816.127 53.9339L813.903 50.12M816.127 53.9339H864.191M764.875 42.998H809.751M764.875 42.998L763.905 39.6684M764.875 42.998H720M764.875 42.998L765.89 46.4786M809.751 42.998L808.048 40.0768L807.81 39.6684M809.751 42.998L811.781 46.4786M809.751 42.998H854.627M763.905 39.6684L763.787 39.2621L762.975 36.4795M763.905 39.6684H807.81M763.905 39.6684H720M807.81 39.6684L807.103 38.4565L806.871 38.0567L806.638 37.6594L805.951 36.4795M807.81 39.6684H851.715M761.229 30.4904H802.459M761.229 30.4904L760.409 27.6747M761.229 30.4904H720M761.229 30.4904L761.546 31.5759L761.653 31.9415L761.759 32.309L761.975 33.0496L762.085 33.4228M802.459 30.4904L801.222 28.368L800.817 27.6747M802.459 30.4904L804.168 33.4228M802.459 30.4904H843.689M760.409 27.6747H800.817M760.409 27.6747H720M760.409 27.6747L759.62 24.969M800.817 27.6747L799.825 25.9711L799.628 25.6353L799.434 25.3012L799.24 24.969M800.817 27.6747H841.226M758.131 19.8624H796.262M758.131 19.8624L757.428 17.4505M758.131 19.8624H720M758.131 19.8624L758.861 22.3667M796.262 19.8624L796.442 20.1702L797.537 22.0484L797.723 22.3667M796.262 19.8624L794.856 17.4505M796.262 19.8624H834.394M757.428 17.4505H794.856M757.428 17.4505H720M757.428 17.4505L756.751 15.1258M794.856 17.4505L794.342 16.5686L794.173 16.2773L794.003 15.9875L793.501 15.1258M794.856 17.4505H832.284M755.467 10.72H790.933M755.467 10.72L754.857 8.6306M755.467 10.72H720M755.467 10.72L756.097 12.8837M790.933 10.72L790.778 10.4549L790.47 9.92798L790.318 9.66613L790.015 9.14639L789.865 8.88778L789.714 8.6306M790.933 10.72L791.558 11.7922L791.715 12.0634L792.034 12.609L792.194 12.8837M790.933 10.72H826.398M754.857 8.6306L754.783 8.3745L754.708 8.11947L754.634 7.86552L754.269 6.61196M754.857 8.6306H789.714M754.857 8.6306H720M789.714 8.6306H824.572M789.714 8.6306L789.416 8.11947L789.268 7.86552L789.121 7.61266L788.683 6.86053L788.537 6.61196M1198.02 217.019H1293.63M1198.02 217.019L1176.52 202.267M1198.02 217.019H1102.42M1198.02 217.019L1221.65 233.23M1293.63 217.019L1267.82 202.267M1293.63 217.019L1321.98 233.23M1293.63 217.019H1389.23M1176.52 202.267H1267.82M1176.52 202.267H1085.22M1176.52 202.267L1156.87 188.784M1267.82 202.267L1244.24 188.784M1267.82 202.267H1359.13M1122.24 165.025H1202.69M1122.24 165.025L1106.9 154.504M1122.24 165.025H1041.79M1122.24 165.025L1138.84 176.414M1202.69 165.025L1184.29 154.504M1202.69 165.025L1222.61 176.414M1202.69 165.025H1283.13M1106.9 154.504H1184.29M1106.9 154.504H1029.52M1106.9 154.504L1092.7 144.756M1184.29 154.504L1167.23 144.756M1184.29 154.504H1261.67M1067.2 127.261H1136.63M1067.2 127.261L1055.71 119.382M1067.2 127.261H997.756M1067.2 127.261L1079.49 135.699M1136.63 127.261L1122.85 119.382M1136.63 127.261L1151.39 135.699M1136.63 127.261H1206.07M1055.71 119.382H1122.85M1055.71 119.382H988.568M1055.71 119.382L1044.96 112.007M1122.85 119.382L1109.95 112.007M1122.85 119.382H1189.99M1025.4 98.5881H1086.48M1025.4 98.5881L1016.48 92.4672M1025.4 98.5881H964.323M1025.4 98.5881L1034.88 105.089M1086.48 98.5881L1075.78 92.4672M1086.48 98.5881L1097.86 105.089M1086.48 98.5881H1147.57M1016.48 92.4672H1075.78M1016.48 92.4672H957.185M1016.48 92.4672L1008.07 86.6933M1075.78 92.4672L1065.68 86.6933M1075.78 92.4672H1135.07M992.592 76.0764H1047.11M992.592 76.0764L985.461 71.1846M992.592 76.0764H938.073M992.592 76.0764L1000.12 81.2386M1047.11 76.0764L1038.55 71.1846M1047.11 76.0764L1056.14 81.2386M1047.11 76.0764H1101.63M985.461 71.1846H1038.55M985.461 71.1846H932.369M985.461 71.1846L978.695 66.5421M1038.55 71.1846L1030.43 66.5421M1038.55 71.1846H1091.65M966.146 57.9327H1015.38M966.146 57.9327L960.318 53.9339M966.146 57.9327H916.917M966.146 57.9327L972.265 62.1305M1015.38 57.9327L1008.38 53.9339M1015.38 57.9327L1022.72 62.1305M1015.38 57.9327H1064.6M960.318 53.9339H1008.38M960.318 53.9339H912.254M960.318 53.9339L954.759 50.12M1008.38 53.9339L1001.71 50.12M1008.38 53.9339H1056.44M944.378 42.998L945 43.4248L945.626 43.8536L949.451 46.4786M944.378 42.998H989.254M944.378 42.998L939.525 39.6684M944.378 42.998H899.503M989.254 42.998L983.43 39.6684M989.254 42.998L995.341 46.4786M989.254 42.998H1034.13M939.525 39.6684H983.43M939.525 39.6684H895.62M939.525 39.6684L934.877 36.4795M983.43 39.6684L977.852 36.4795M983.43 39.6684H1027.33M926.147 30.4904H967.377M926.147 30.4904L922.043 27.6747M926.147 30.4904H884.918M926.147 30.4904L930.421 33.4228M967.377 30.4904L964.275 28.7175L962.452 27.6747M967.377 30.4904L972.506 33.4228M967.377 30.4904H1008.61M922.043 27.6747H962.452M922.043 27.6747H881.635M922.043 27.6747L918.585 25.3012L918.1 24.969M962.452 27.6747L957.72 24.969M962.452 27.6747H1002.86M910.657 19.8624H948.788M910.657 19.8624L909.766 19.2507L907.141 17.4505M910.657 19.8624H872.526M910.657 19.8624L911.556 20.4795L913.382 21.7316L914.307 22.3667M948.788 19.8624L944.569 17.4505M948.788 19.8624L950.411 20.7905L951.506 21.4166L953.168 22.3667M948.788 19.8624H986.919M907.141 17.4505H944.569M907.141 17.4505H869.712M907.141 17.4505L904.588 15.6987L903.752 15.1258M944.569 17.4505L943.027 16.5686L942.01 15.9875L940.503 15.1258M944.569 17.4505H981.997M897.331 10.72H932.798M897.331 10.72L895.415 9.40573L894.286 8.6306M897.331 10.72H861.865M897.331 10.72L900.485 12.8837M932.798 10.72L930.044 9.14639L929.593 8.88778L929.143 8.6306M932.798 10.72L934.673 11.7922L936.582 12.8837M932.798 10.72H968.263M894.286 8.6306H929.143M894.286 8.6306L892.802 7.61266L892.07 7.11015L891.706 6.86053L891.344 6.61196M894.286 8.6306H859.429M929.143 8.6306H964M929.143 8.6306L925.612 6.61196M1416.43 154.504H1339.05M1416.43 154.504L1390.85 144.756M1416.43 154.504H1439.61M1416.43 154.504L1439.61 163.342M1344.95 127.261H1414.39M1344.95 127.261L1324.28 119.382M1344.95 127.261H1275.51M1344.95 127.261L1367.09 135.699M1414.39 127.261L1391.42 119.382M1414.39 127.261L1438.99 135.699M1414.39 127.261H1439.61M1324.28 119.382H1391.42M1324.28 119.382H1257.14M1324.28 119.382L1304.93 112.007M1391.42 119.382L1369.92 112.007M1391.42 119.382H1439.61M1269.73 98.5881H1330.81M1269.73 98.5881L1253.67 92.4672M1269.73 98.5881H1208.65M1269.73 98.5881L1286.78 105.089M1330.81 98.5881L1312.96 92.4672M1330.81 98.5881L1349.76 105.089M1330.81 98.5881H1391.89M1253.67 92.4672H1312.96M1253.67 92.4672H1194.37M1253.67 92.4672L1238.52 86.6933M1312.96 92.4672L1296.13 86.6933M1312.96 92.4672H1372.26M1210.66 76.0764H1265.18M1210.66 76.0764L1197.83 71.1846M1210.66 76.0764H1156.15M1210.66 76.0764L1224.21 81.2386M1265.18 76.0764L1250.92 71.1846M1265.18 76.0764L1280.23 81.2386M1265.18 76.0764H1319.7M1197.83 71.1846H1250.92M1197.83 71.1846H1144.74M1197.83 71.1846L1185.65 66.5421M1250.92 71.1846L1237.39 66.5421M1250.92 71.1846H1304.02M1163.06 57.9327H1212.29M1163.06 57.9327L1152.57 53.9339M1163.06 57.9327H1113.83M1163.06 57.9327L1174.08 62.1305M1212.29 57.9327L1200.64 53.9339M1212.29 57.9327L1224.53 62.1305M1212.29 57.9327H1261.52M1152.57 53.9339H1200.64M1152.57 53.9339H1104.51M1152.57 53.9339L1142.57 50.12M1200.64 53.9339L1189.52 50.12M1200.64 53.9339H1248.7M1123.88 42.998H1168.76M1123.88 42.998L1115.14 39.6684M1123.88 42.998H1079.01M1123.88 42.998L1133.01 46.4786M1168.76 42.998L1159.05 39.6684M1168.76 42.998L1178.9 46.4786M1168.76 42.998H1213.63M1115.14 39.6684H1159.05M1115.14 39.6684H1071.24M1115.14 39.6684L1106.78 36.4795M1159.05 39.6684L1149.75 36.4795M1159.05 39.6684H1202.95M1091.07 30.4904H1132.29M1091.07 30.4904L1083.68 27.6747M1091.07 30.4904H1049.84M1091.07 30.4904L1098.76 33.4228M1132.29 30.4904L1124.09 27.6747M1132.29 30.4904L1140.84 33.4228M1132.29 30.4904H1173.52M1083.68 27.6747H1124.09M1083.68 27.6747H1043.27M1083.68 27.6747L1076.58 24.969M1124.09 27.6747L1116.2 24.969M1124.09 27.6747H1164.5M1063.18 19.8624H1101.31M1063.18 19.8624L1056.85 17.4505M1063.18 19.8624H1025.05M1063.18 19.8624L1064.8 20.4795L1065.62 20.7905L1069.75 22.3667M1101.31 19.8624L1094.28 17.4505M1101.31 19.8624L1108.61 22.3667M1101.31 19.8624H1139.44M1056.85 17.4505H1094.28M1056.85 17.4505H1019.43M1056.85 17.4505L1050.75 15.1258M1094.28 17.4505L1087.51 15.1258M1094.28 17.4505H1131.71M1039.2 10.72H1074.66M1039.2 10.72L1033.71 8.6306M1039.2 10.72H1003.73M1039.2 10.72L1044.87 12.8837M1074.66 10.72L1070.07 9.14639L1069.32 8.88778L1068.57 8.6306M1074.66 10.72L1080.97 12.8837M1074.66 10.72H1110.13M1033.71 8.6306H1068.57M1033.71 8.6306L1029.07 6.86053L1028.42 6.61196M1033.71 8.6306H998.857M1068.57 8.6306H1103.43M1068.57 8.6306L1062.69 6.61196M1428.74 76.0764L1410.2 71.1846M1428.74 76.0764H1374.22M1428.74 76.0764L1439.61 78.9459M1428.74 76.0764H1439.61M1410.2 71.1846H1357.11M1410.2 71.1846L1392.61 66.5421M1410.2 71.1846H1439.61M1359.98 57.9327H1409.21M1359.98 57.9327L1344.83 53.9339M1359.98 57.9327H1310.75M1359.98 57.9327L1375.89 62.1305M1409.21 57.9327L1392.89 53.9339M1409.21 57.9327L1426.34 62.1305M1409.21 57.9327H1439.61M1344.83 53.9339H1392.89M1344.83 53.9339H1296.76M1344.83 53.9339L1330.37 50.12M1392.89 53.9339L1377.32 50.12M1392.89 53.9339H1439.61M1303.38 42.998H1348.26M1303.38 42.998L1290.76 39.6684M1303.38 42.998H1258.51M1303.38 42.998L1316.57 46.4786M1348.26 42.998L1334.67 39.6684M1348.26 42.998L1362.46 46.4786M1348.26 42.998H1393.13M1290.76 39.6684H1334.67M1290.76 39.6684H1246.86M1290.76 39.6684L1278.68 36.4795M1334.67 39.6684L1321.66 36.4795M1334.67 39.6684H1378.57M1255.98 30.4904H1297.21M1255.98 30.4904L1245.31 27.6747M1255.98 30.4904H1214.75M1255.98 30.4904L1267.1 33.4228M1297.21 30.4904L1285.72 27.6747M1297.21 30.4904L1309.18 33.4228M1297.21 30.4904H1338.44M1245.31 27.6747H1285.72M1245.31 27.6747H1204.9M1245.31 27.6747L1235.06 24.969M1285.72 27.6747L1274.68 24.969M1285.72 27.6747H1326.13M1215.71 19.8624H1253.84M1215.71 19.8624L1206.57 17.4505M1215.71 19.8624H1177.58M1215.71 19.8624L1225.2 22.3667M1253.84 19.8624L1243.99 17.4505M1253.84 19.8624L1264.06 22.3667M1253.84 19.8624H1291.97M1206.57 17.4505H1243.99M1206.57 17.4505H1169.14M1206.57 17.4505L1197.76 15.1258M1243.99 17.4505L1234.51 15.1258M1243.99 17.4505H1281.42M1181.06 10.72H1216.53M1181.06 10.72L1173.14 8.6306M1181.06 10.72H1145.59M1181.06 10.72L1189.26 12.8837M1216.53 10.72L1208 8.6306M1216.53 10.72L1225.36 12.8837M1216.53 10.72H1251.99M1173.14 8.6306H1208M1173.14 8.6306L1165.49 6.61196M1173.14 8.6306H1138.29M1208 8.6306H1242.86M1208 8.6306L1199.76 6.61196M1420.9 30.4904L1406.95 27.6747M1420.9 30.4904H1379.67M1420.9 30.4904L1435.43 33.4228M1420.9 30.4904H1439.61M1406.95 27.6747H1366.54M1406.95 27.6747L1393.54 24.969M1406.95 27.6747H1439.61M1368.23 19.8624H1406.36M1368.23 19.8624L1356.28 17.4505M1368.23 19.8624H1330.1M1368.23 19.8624L1380.64 22.3667M1406.36 19.8624L1393.71 17.4505M1406.36 19.8624L1419.5 22.3667M1406.36 19.8624H1439.61M1356.28 17.4505H1393.71M1356.28 17.4505H1318.85M1356.28 17.4505L1344.76 15.1258M1393.71 17.4505L1381.51 15.1258M1393.71 17.4505H1431.14M1322.93 10.72H1358.39M1322.93 10.72L1312.57 8.6306M1322.93 10.72H1287.46M1322.93 10.72L1333.65 12.8837M1358.39 10.72L1347.43 8.6306M1358.39 10.72L1369.74 12.8837M1358.39 10.72H1393.86M1312.57 8.6306H1347.43M1312.57 8.6306L1302.57 6.61196M1312.57 8.6306H1277.71M1347.43 8.6306H1382.29M1347.43 8.6306L1336.84 6.61196M1369.74 12.8837L1381.51 15.1258M1369.74 12.8837H1405.84M1369.74 12.8837H1333.65M1393.86 10.72L1382.29 8.6306M1393.86 10.72L1405.84 12.8837M1393.86 10.72H1429.32M1382.29 8.6306H1417.14M1382.29 8.6306L1371.1 6.61196M1336.84 6.61196H1302.57M1336.84 6.61196H1371.1M1336.84 6.61196L1326.6 4.66014M1405.84 12.8837L1418.26 15.1258M1405.84 12.8837H1439.61M1429.32 10.72L1417.14 8.6306M1429.32 10.72L1439.61 12.4845M1429.32 10.72H1439.61M1417.14 8.6306L1405.37 6.61196M1417.14 8.6306H1439.61M1371.1 6.61196H1405.37M1371.1 6.61196L1360.29 4.66014M1405.37 6.61196L1393.99 4.66014M1405.37 6.61196H1439.61M1381.51 15.1258H1418.26M1381.51 15.1258H1344.76M1431.14 17.4505L1418.26 15.1258M1431.14 17.4505L1439.61 18.9806M1431.14 17.4505H1439.61M1418.26 15.1258H1439.61M1344.76 15.1258H1308.01M1344.76 15.1258L1333.65 12.8837M1333.65 12.8837H1297.55M1419.5 22.3667L1433.16 24.969M1419.5 22.3667H1380.64M1419.5 22.3667H1439.61M1439.73 19.8624H1439.61M1433.16 24.969H1393.54M1433.16 24.969L1439.61 26.1988M1433.16 24.969H1439.61M1393.54 24.969H1353.92M1393.54 24.969L1380.64 22.3667M1380.64 22.3667H1341.78M1225.36 12.8837L1234.51 15.1258M1225.36 12.8837H1261.45M1225.36 12.8837H1189.26M1251.99 10.72L1242.86 8.6306M1251.99 10.72L1261.45 12.8837M1251.99 10.72H1287.46M1242.86 8.6306H1277.71M1242.86 8.6306L1234.03 6.61196M1199.76 6.61196H1234.03M1199.76 6.61196L1191.8 4.66014M1199.76 6.61196H1165.49M1261.45 12.8837L1271.26 15.1258M1261.45 12.8837H1297.55M1287.46 10.72L1277.71 8.6306M1287.46 10.72L1297.55 12.8837M1277.71 8.6306L1268.3 6.61196M1234.03 6.61196H1268.3M1234.03 6.61196L1225.5 4.66014M1297.55 12.8837L1308.01 15.1258M1302.57 6.61196H1268.3M1302.57 6.61196L1292.89 4.66014M1268.3 6.61196L1259.2 4.66014M1234.51 15.1258H1271.26M1234.51 15.1258H1197.76M1281.42 17.4505L1271.26 15.1258M1281.42 17.4505L1291.97 19.8624M1281.42 17.4505H1318.85M1271.26 15.1258H1308.01M1197.76 15.1258H1161.01M1197.76 15.1258L1189.26 12.8837M1308.01 15.1258L1318.85 17.4505M1189.26 12.8837H1153.16M1291.97 19.8624L1302.92 22.3667M1291.97 19.8624H1330.1M1318.85 17.4505L1330.1 19.8624M1330.1 19.8624L1341.78 22.3667M1264.06 22.3667L1274.68 24.969M1264.06 22.3667H1302.92M1264.06 22.3667H1225.2M1302.92 22.3667L1314.3 24.969M1302.92 22.3667H1341.78M1341.78 22.3667L1353.92 24.969M1274.68 24.969H1314.3M1274.68 24.969H1235.06M1326.13 27.6747L1314.3 24.969M1326.13 27.6747L1338.44 30.4904M1326.13 27.6747H1366.54M1314.3 24.969H1353.92M1235.06 24.969H1195.44M1235.06 24.969L1225.2 22.3667M1353.92 24.969L1366.54 27.6747M1225.2 22.3667H1186.34M1338.44 30.4904L1351.27 33.4228M1338.44 30.4904H1379.67M1366.54 27.6747L1379.67 30.4904M1379.67 30.4904L1393.35 33.4228M1309.18 33.4228L1321.66 36.4795M1309.18 33.4228H1351.27M1309.18 33.4228H1267.1M1351.27 33.4228L1364.63 36.4795M1351.27 33.4228H1393.35M1393.35 33.4228L1407.61 36.4795M1393.35 33.4228H1435.43M1435.43 33.4228H1439.61M1435.43 33.4228L1439.61 34.2659M1321.66 36.4795H1364.63M1321.66 36.4795H1278.68M1378.57 39.6684L1364.63 36.4795M1378.57 39.6684L1393.13 42.998M1378.57 39.6684H1422.48M1364.63 36.4795H1407.61M1278.68 36.4795H1235.7M1278.68 36.4795L1267.1 33.4228M1407.61 36.4795L1422.48 39.6684M1407.61 36.4795H1439.61M1267.1 33.4228H1225.01M1393.13 42.998L1408.35 46.4786M1393.13 42.998H1438.01M1422.48 39.6684L1438.01 42.998M1422.48 39.6684H1439.61M1439.84 36.4795H1439.61M1438.01 42.998L1439.61 43.3417M1438.01 42.998H1439.61M1362.46 46.4786L1377.32 50.12M1362.46 46.4786H1408.35M1362.46 46.4786H1316.57M1408.35 46.4786L1424.28 50.12M1408.35 46.4786H1439.61M1440 43.4248L1439.61 43.3417M1377.32 50.12H1424.28M1377.32 50.12H1330.37M1424.28 50.12H1439.61M1424.28 50.12L1439.61 53.6274M1330.37 50.12H1283.42M1330.37 50.12L1316.57 46.4786M1316.57 46.4786H1270.68M1426.34 62.1305H1375.89M1426.34 62.1305L1439.61 65.3824M1426.34 62.1305H1439.61M1439.98 57.9327H1439.61M1375.89 62.1305H1325.43M1375.89 62.1305L1392.61 66.5421M1439.76 65.4182L1439.61 65.3824M1080.97 12.8837L1087.51 15.1258M1080.97 12.8837H1117.07M1080.97 12.8837H1044.87M1110.13 10.72L1103.43 8.6306M1110.13 10.72L1117.07 12.8837M1110.13 10.72H1145.59M1103.43 8.6306H1138.29M1103.43 8.6306L1096.96 6.61196M1062.69 6.61196H1096.96M1062.69 6.61196L1060.53 5.8724L1057 4.66014M1062.69 6.61196H1028.42M1117.07 12.8837L1124.26 15.1258M1117.07 12.8837H1153.16M1145.59 10.72L1138.29 8.6306M1145.59 10.72L1153.16 12.8837M1138.29 8.6306L1131.22 6.61196M1096.96 6.61196H1131.22M1096.96 6.61196L1090.7 4.66014M1153.16 12.8837L1161.01 15.1258M1165.49 6.61196L1158.1 4.66014M1165.49 6.61196H1131.22M1131.22 6.61196L1130.36 6.36412L1128.64 5.8724L1124.4 4.66014M1087.51 15.1258H1124.26M1087.51 15.1258H1050.75M1131.71 17.4505L1124.26 15.1258M1131.71 17.4505L1139.44 19.8624M1131.71 17.4505H1169.14M1124.26 15.1258H1161.01M1050.75 15.1258H1014M1050.75 15.1258L1044.87 12.8837M1161.01 15.1258L1169.14 17.4505M1044.87 12.8837H1008.78M1139.44 19.8624L1147.48 22.3667M1139.44 19.8624H1177.58M1169.14 17.4505L1170.18 17.7468L1177.58 19.8624M1177.58 19.8624L1186.34 22.3667M1108.61 22.3667L1109.55 22.6867L1116.2 24.969M1108.61 22.3667H1147.48M1108.61 22.3667H1069.75M1147.48 22.3667L1155.82 24.969M1147.48 22.3667H1186.34M1186.34 22.3667L1195.44 24.969M1116.2 24.969H1155.82M1116.2 24.969H1076.58M1164.5 27.6747L1155.82 24.969M1164.5 27.6747L1173.52 30.4904M1164.5 27.6747H1204.9M1155.82 24.969H1195.44M1076.58 24.969H1036.96M1076.58 24.969L1069.75 22.3667M1195.44 24.969L1204.9 27.6747M1069.75 22.3667H1030.89M1173.52 30.4904L1182.93 33.4228M1173.52 30.4904H1214.75M1204.9 27.6747L1214.75 30.4904M1214.75 30.4904L1225.01 33.4228M1140.84 33.4228L1149.75 36.4795M1140.84 33.4228H1182.93M1140.84 33.4228H1098.76M1182.93 33.4228L1192.73 36.4795M1182.93 33.4228H1225.01M1225.01 33.4228L1235.7 36.4795M1149.75 36.4795H1192.73M1149.75 36.4795H1106.78M1202.95 39.6684L1192.73 36.4795M1202.95 39.6684L1213.63 42.998M1202.95 39.6684H1246.86M1192.73 36.4795H1235.7M1106.78 36.4795H1063.8M1106.78 36.4795L1098.76 33.4228M1235.7 36.4795L1246.86 39.6684M1098.76 33.4228H1056.67M1213.63 42.998L1224.79 46.4786M1213.63 42.998H1258.51M1246.86 39.6684L1258.51 42.998M1258.51 42.998L1270.68 46.4786M1178.9 46.4786L1189.52 50.12M1178.9 46.4786H1224.79M1178.9 46.4786H1133.01M1224.79 46.4786L1236.47 50.12M1224.79 46.4786H1270.68M1270.68 46.4786L1283.42 50.12M1189.52 50.12H1236.47M1189.52 50.12H1142.57M1248.7 53.9339L1236.47 50.12M1248.7 53.9339L1261.52 57.9327M1248.7 53.9339H1296.76M1236.47 50.12H1283.42M1142.57 50.12H1095.61M1142.57 50.12L1133.01 46.4786M1283.42 50.12L1296.76 53.9339M1133.01 46.4786H1087.12M1261.52 57.9327L1274.98 62.1305M1261.52 57.9327H1310.75M1296.76 53.9339L1310.75 57.9327M1310.75 57.9327L1325.43 62.1305M1224.53 62.1305L1237.39 66.5421M1224.53 62.1305H1274.98M1224.53 62.1305H1174.08M1274.98 62.1305L1289.13 66.5421M1274.98 62.1305H1325.43M1325.43 62.1305L1340.87 66.5421M1237.39 66.5421H1289.13M1237.39 66.5421H1185.65M1304.02 71.1846L1289.13 66.5421M1304.02 71.1846L1319.7 76.0764M1304.02 71.1846H1357.11M1289.13 66.5421H1340.87M1185.65 66.5421H1133.91M1185.65 66.5421L1174.08 62.1305M1340.87 66.5421L1357.11 71.1846M1340.87 66.5421H1392.61M1174.08 62.1305H1123.62M1319.7 76.0764L1336.25 81.2386M1319.7 76.0764H1374.22M1357.11 71.1846L1374.22 76.0764M1392.61 66.5421H1439.61M1374.22 76.0764L1392.28 81.2386M1280.23 81.2386L1296.13 86.6933M1280.23 81.2386H1336.25M1280.23 81.2386H1224.21M1336.25 81.2386L1353.75 86.6933M1336.25 81.2386H1392.28M1392.28 81.2386L1411.36 86.6933M1392.28 81.2386H1439.61M1296.13 86.6933H1353.75M1296.13 86.6933H1238.52M1372.26 92.4672L1353.75 86.6933M1372.26 92.4672L1391.89 98.5881M1372.26 92.4672H1431.56M1353.75 86.6933H1411.36M1238.52 86.6933H1180.91M1238.52 86.6933L1224.21 81.2386M1411.36 86.6933L1431.56 92.4672M1411.36 86.6933H1439.61M1224.21 81.2386H1168.18M1391.89 98.5881L1412.73 105.089M1391.89 98.5881H1439.61M1431.56 92.4672H1439.61M1431.56 92.4672L1439.61 94.7702M1349.76 105.089L1369.92 112.007M1349.76 105.089H1412.73M1349.76 105.089H1286.78M1412.73 105.089L1434.91 112.007M1412.73 105.089H1439.61M1369.92 112.007H1434.91M1369.92 112.007H1304.93M1434.91 112.007L1439.61 113.472M1434.91 112.007H1439.61M1304.93 112.007H1239.94M1304.93 112.007L1286.78 105.089M1286.78 105.089H1223.81M1438.99 135.699H1367.09M1438.99 135.699H1439.61M1438.99 135.699L1439.61 135.913M1367.09 135.699H1295.19M1367.09 135.699L1390.85 144.756M936.582 12.8837L938.036 13.7149L938.525 13.9947L940.503 15.1258M936.582 12.8837H972.679M936.582 12.8837H900.485M968.263 10.72L965.052 9.14639L964 8.6306M968.263 10.72L972.119 12.609L972.679 12.8837M968.263 10.72H1003.73M964 8.6306H998.857M964 8.6306L959.881 6.61196M925.612 6.61196H959.881M925.612 6.61196L924.318 5.8724L922.198 4.66014M925.612 6.61196H891.344M972.679 12.8837L973.807 13.4365L977.254 15.1258M972.679 12.8837H1008.78M1003.73 10.72L998.857 8.6306M1003.73 10.72L1008.78 12.8837M998.857 8.6306L995.311 7.11015L994.149 6.61196M959.881 6.61196H994.149M959.881 6.61196L955.898 4.66014M1008.78 12.8837L1014 15.1258M1028.42 6.61196L1027.77 6.36412L1023.3 4.66014M1028.42 6.61196H994.149M994.149 6.61196L992.424 5.8724L989.598 4.66014M940.503 15.1258H977.254M940.503 15.1258H903.752M981.997 17.4505L977.254 15.1258M981.997 17.4505L986.919 19.8624M981.997 17.4505H1019.43M977.254 15.1258H1014M903.752 15.1258H867.002M903.752 15.1258L900.485 12.8837M1014 15.1258L1019.43 17.4505M900.485 12.8837H864.388M986.919 19.8624L990.09 21.4166L990.734 21.7316L992.029 22.3667M986.919 19.8624H1025.05M1019.43 17.4505L1025.05 19.8624M1025.05 19.8624L1030.89 22.3667M953.168 22.3667L957.72 24.969M953.168 22.3667H992.029M953.168 22.3667H914.307M992.029 22.3667L997.339 24.969M992.029 22.3667H1030.89M1030.89 22.3667L1036.96 24.969M957.72 24.969H997.339M957.72 24.969H918.1M1002.86 27.6747L999.384 25.9711L998.7 25.6353L997.339 24.969M1002.86 27.6747L1008.61 30.4904M1002.86 27.6747H1043.27M997.339 24.969H1036.96M918.1 24.969H878.48M918.1 24.969L914.307 22.3667M1036.96 24.969L1043.27 27.6747M914.307 22.3667H875.445M1008.61 30.4904L1014.59 33.4228M1008.61 30.4904H1049.84M1043.27 27.6747L1049.84 30.4904M1049.84 30.4904L1056.67 33.4228M972.506 33.4228L975.151 34.935L975.821 35.3183L977.852 36.4795M972.506 33.4228H1014.59M972.506 33.4228H930.421M1014.59 33.4228L1020.83 36.4795M1014.59 33.4228H1056.67M1056.67 33.4228L1063.8 36.4795M977.852 36.4795H1020.83M977.852 36.4795H934.877M1027.33 39.6684L1020.83 36.4795M1027.33 39.6684L1034.13 42.998M1027.33 39.6684H1071.24M1020.83 36.4795H1063.8M934.877 36.4795H891.901M934.877 36.4795L933.745 35.7033L930.421 33.4228M1063.8 36.4795L1071.24 39.6684M930.421 33.4228H888.338M1034.13 42.998L1041.23 46.4786M1034.13 42.998H1079.01M1071.24 39.6684L1079.01 42.998M1079.01 42.998L1087.12 46.4786M995.341 46.4786L1001.71 50.12M995.341 46.4786H1041.23M995.341 46.4786H949.451M1041.23 46.4786L1048.66 50.12M1041.23 46.4786H1087.12M1087.12 46.4786L1095.61 50.12M1001.71 50.12H1048.66M1001.71 50.12H954.759M1056.44 53.9339L1048.66 50.12M1056.44 53.9339L1064.6 57.9327M1056.44 53.9339H1104.51M1048.66 50.12H1095.61M954.759 50.12H907.807M954.759 50.12L949.451 46.4786M1095.61 50.12L1104.51 53.9339M949.451 46.4786H903.561M1064.6 57.9327L1073.17 62.1305M1064.6 57.9327H1113.83M1104.51 53.9339L1113.83 57.9327M1113.83 57.9327L1123.62 62.1305M1022.72 62.1305L1030.43 66.5421M1022.72 62.1305H1073.17M1022.72 62.1305H972.265M1073.17 62.1305L1082.17 66.5421M1073.17 62.1305H1123.62M1123.62 62.1305L1133.91 66.5421M1030.43 66.5421H1082.17M1030.43 66.5421H978.695M1091.65 71.1846L1082.17 66.5421M1091.65 71.1846L1101.63 76.0764M1091.65 71.1846H1144.74M1082.17 66.5421H1133.91M978.695 66.5421H926.956M978.695 66.5421L972.265 62.1305M1133.91 66.5421L1144.74 71.1846M972.265 62.1305H921.812M1101.63 76.0764L1112.16 81.2386M1101.63 76.0764H1156.15M1144.74 71.1846L1156.15 76.0764M1156.15 76.0764L1168.18 81.2386M1056.14 81.2386L1065.68 86.6933M1056.14 81.2386H1112.16M1056.14 81.2386H1000.12M1112.16 81.2386L1123.29 86.6933M1112.16 81.2386H1168.18M1168.18 81.2386L1180.91 86.6933M1065.68 86.6933H1123.29M1065.68 86.6933H1008.07M1135.07 92.4672L1123.29 86.6933M1135.07 92.4672L1147.57 98.5881M1135.07 92.4672H1194.37M1123.29 86.6933H1180.91M1008.07 86.6933H950.453M1008.07 86.6933L1000.12 81.2386M1180.91 86.6933L1194.37 92.4672M1000.12 81.2386H944.093M1147.57 98.5881L1160.83 105.089M1147.57 98.5881H1208.65M1194.37 92.4672L1208.65 98.5881M1208.65 98.5881L1223.81 105.089M1097.86 105.089L1109.95 112.007M1097.86 105.089H1160.83M1097.86 105.089H1034.88M1160.83 105.089L1174.95 112.007M1160.83 105.089H1223.81M1223.81 105.089L1239.94 112.007M1109.95 112.007H1174.95M1109.95 112.007H1044.96M1189.99 119.382L1174.95 112.007M1189.99 119.382L1206.07 127.261M1189.99 119.382H1257.14M1174.95 112.007H1239.94M1044.96 112.007H979.969M1044.96 112.007L1034.88 105.089M1239.94 112.007L1257.14 119.382M1034.88 105.089H971.903M1206.07 127.261L1223.29 135.699M1206.07 127.261H1275.51M1257.14 119.382L1275.51 127.261M1275.51 127.261L1295.19 135.699M1151.39 135.699L1167.23 144.756M1151.39 135.699H1223.29M1151.39 135.699H1079.49M1223.29 135.699L1241.77 144.756M1223.29 135.699H1295.19M1295.19 135.699L1316.31 144.756M1167.23 144.756H1241.77M1167.23 144.756H1092.7M1261.67 154.504L1241.77 144.756M1261.67 154.504L1283.13 165.025M1261.67 154.504H1339.05M1241.77 144.756H1316.31M1092.7 144.756H1018.16M1092.7 144.756L1079.49 135.699M1316.31 144.756L1339.05 154.504M1316.31 144.756H1390.85M1079.49 135.699H1007.6M1283.13 165.025L1306.37 176.414M1283.13 165.025H1363.58M1339.05 154.504L1363.58 165.025M1390.85 144.756H1439.61M1363.58 165.025L1390.14 176.414M1363.58 165.025H1439.61M1222.61 176.414L1244.24 188.784M1222.61 176.414H1306.37M1222.61 176.414H1138.84M1306.37 176.414L1331.62 188.784M1306.37 176.414H1390.14M1390.14 176.414L1418.99 188.784M1390.14 176.414H1439.61M1244.24 188.784H1331.62M1244.24 188.784H1156.87M1359.13 202.267L1331.62 188.784M1359.13 202.267L1389.23 217.019M1359.13 202.267H1439.61M1331.62 188.784H1418.99M1156.87 188.784H1069.49M1156.87 188.784L1138.84 176.414M1418.99 188.784H1439.61M1418.99 188.784L1439.61 197.627M1138.84 176.414H1055.07M1389.23 217.019L1422.31 233.23M1389.23 217.019H1439.61M1321.98 233.23L1353.28 251.128M1321.98 233.23H1422.31M1321.98 233.23H1221.65M1422.31 233.23L1439.61 241.709M1422.31 233.23H1439.61M1353.28 251.128H1247.74M1353.28 251.128L1439.61 251.127M1247.74 251.128H1142.19M1247.74 251.128L1221.65 233.23M1221.65 233.23H1121.32M792.194 12.8837L792.355 13.1596L792.516 13.4365L792.679 13.7149L792.841 13.9947L793.335 14.841L793.501 15.1258M792.194 12.8837H828.291M792.194 12.8837H756.097M826.398 10.72L825.022 9.14639L824.572 8.6306M826.398 10.72L827.574 12.0634L828.291 12.8837M826.398 10.72H861.865M824.572 8.6306H859.429M824.572 8.6306L823.242 7.11015L822.806 6.61196M788.537 6.61196L788.393 6.36412L787.822 5.38426L787.399 4.66014M788.537 6.61196H822.806M788.537 6.61196H754.269M828.291 12.8837L828.532 13.1596L828.775 13.4365L829.018 13.7149L829.263 13.9947L830.251 15.1258M828.291 12.8837H864.388M861.865 10.72L860.03 9.14639L859.429 8.6306M861.865 10.72L864.388 12.8837M859.429 8.6306L858.241 7.61266L857.364 6.86053L857.075 6.61196M822.806 6.61196L822.59 6.36412L822.159 5.8724L821.732 5.38426L821.521 5.14181L821.099 4.66014M822.806 6.61196H857.075M864.388 12.8837L866.34 14.5576L867.002 15.1258M891.344 6.61196L889.201 5.14181L888.499 4.66014M891.344 6.61196H857.075M857.075 6.61196L855.08 4.90044L854.798 4.66014M793.501 15.1258H830.251M793.501 15.1258H756.751M832.284 17.4505L830.251 15.1258M832.284 17.4505L834.394 19.8624M832.284 17.4505H869.712M830.251 15.1258H867.002M756.751 15.1258H720M756.751 15.1258L756.097 12.8837M867.002 15.1258L869.712 17.4505M756.097 12.8837H720M834.394 19.8624L834.934 20.4795L835.753 21.4166L836.584 22.3667M834.394 19.8624H872.526M869.712 17.4505L870.059 17.7468L872.526 19.8624M872.526 19.8624L872.884 20.1702L873.245 20.4795L873.607 20.7905L875.445 22.3667M797.723 22.3667L799.24 24.969M797.723 22.3667H836.584M797.723 22.3667H758.861M836.584 22.3667L838.86 24.969M836.584 22.3667H875.445M875.445 22.3667L877.71 24.3088L878.094 24.6382L878.48 24.969M799.24 24.969H838.86M799.24 24.969H759.62M841.226 27.6747L841.528 28.0206L841.833 28.368L842.138 28.7175L843.689 30.4904M841.226 27.6747L840.031 26.3084L839.736 25.9711L839.443 25.6353L838.86 24.969M841.226 27.6747H881.635M838.86 24.969H878.48M759.62 24.969H720M759.62 24.969L758.861 22.3667M878.48 24.969L881.635 27.6747M758.861 22.3667H720M843.689 30.4904L845.927 33.0496L846.253 33.4228M843.689 30.4904H884.918M881.635 27.6747L882.444 28.368L884.918 30.4904M884.918 30.4904L886.184 31.5759L888.338 33.4228M804.168 33.4228L805.051 34.935L805.273 35.3183L805.951 36.4795M804.168 33.4228H846.253M804.168 33.4228H762.085M846.253 33.4228L848.926 36.4795M846.253 33.4228H888.338M888.338 33.4228L891.901 36.4795M805.951 36.4795H848.926M805.951 36.4795H762.975M851.715 39.6684L848.926 36.4795M851.715 39.6684L854.627 42.998M851.715 39.6684H895.62M848.926 36.4795H891.901M762.975 36.4795H720M762.975 36.4795L762.749 35.7033L762.304 34.175L762.085 33.4228M891.901 36.4795L895.62 39.6684M762.085 33.4228H720M854.627 42.998L856.897 45.5939L857.671 46.4786M854.627 42.998H899.503M895.62 39.6684L899.503 42.998M899.503 42.998L901.509 44.7189L903.561 46.4786M811.781 46.4786L813.903 50.12M811.781 46.4786H857.671M811.781 46.4786H765.89M857.671 46.4786L860.855 50.12M857.671 46.4786H903.561M903.561 46.4786L907.807 50.12M813.903 50.12H860.855M813.903 50.12H766.952M864.191 53.9339L863.342 52.9637L860.855 50.12M864.191 53.9339L867.688 57.9327M864.191 53.9339H912.254M860.855 50.12H907.807M766.952 50.12H720M766.952 50.12L765.89 46.4786M907.807 50.12L912.254 53.9339M765.89 46.4786H720M867.688 57.9327L871.359 62.1305M867.688 57.9327H916.917M912.254 53.9339L916.917 57.9327M916.917 57.9327L921.812 62.1305M820.906 62.1305L823.478 66.5421M820.906 62.1305H871.359M820.906 62.1305H770.453M871.359 62.1305L875.217 66.5421M871.359 62.1305H921.812M921.812 62.1305L926.956 66.5421M823.478 66.5421H875.217M823.478 66.5421H771.739M879.277 71.1846L875.217 66.5421M879.277 71.1846L883.555 76.0764M879.277 71.1846H932.369M875.217 66.5421H926.956M771.739 66.5421H720M771.739 66.5421L770.61 62.6701L770.453 62.1305M926.956 66.5421L932.369 71.1846M770.453 62.1305H720M883.555 76.0764L888.069 81.2386M883.555 76.0764H938.073M932.369 71.1846L936.618 74.8293L938.073 76.0764M938.073 76.0764L944.093 81.2386M832.046 81.2386L835.226 86.6933M832.046 81.2386H888.069M832.046 81.2386H776.023M888.069 81.2386L892.84 86.6933M888.069 81.2386H944.093M944.093 81.2386L950.453 86.6933M835.226 86.6933H892.84M835.226 86.6933H777.613M897.889 92.4672L892.84 86.6933M897.889 92.4672L903.242 98.5881M897.889 92.4672H957.185M892.84 86.6933H950.453M777.613 86.6933H720M777.613 86.6933L776.023 81.2386M950.453 86.6933L957.185 92.4672M776.023 81.2386H720M903.242 98.5881L908.928 105.089M903.242 98.5881H964.323M957.185 92.4672L964.323 98.5881M964.323 98.5881L971.903 105.089M845.952 105.089L849.985 112.007M845.952 105.089H908.928M845.952 105.089H782.976M908.928 105.089L914.977 112.007M908.928 105.089H971.903M971.903 105.089L979.969 112.007M849.985 112.007H914.977M849.985 112.007H784.992M921.426 119.382L914.977 112.007M921.426 119.382L928.317 127.261M921.426 119.382H988.568M914.977 112.007H979.969M784.992 112.007H720M784.992 112.007L782.976 105.089M979.969 112.007L988.568 119.382M782.976 105.089H720M928.317 127.261L935.696 135.699M928.317 127.261H997.756M988.568 119.382L997.756 127.261M997.756 127.261L1007.6 135.699M863.797 135.699L869.078 144.756M863.797 135.699H935.696M863.797 135.699H791.899M935.696 135.699L943.617 144.756M935.696 135.699H1007.6M1007.6 135.699L1018.16 144.756M869.078 144.756H943.617M869.078 144.756H794.539M952.142 154.504L943.617 144.756M952.142 154.504L961.343 165.025M952.142 154.504H1029.52M943.617 144.756H1018.16M794.539 144.756H720M794.539 144.756L791.899 135.699M1018.16 144.756L1029.52 154.504M791.899 135.699H720M961.343 165.025L971.304 176.414M961.343 165.025H1041.79M1029.52 154.504L1041.79 165.025M1041.79 165.025L1055.07 176.414M887.536 176.414L894.747 188.784M887.536 176.414H971.304M887.536 176.414H803.768M971.304 176.414L982.121 188.784M971.304 176.414H1055.07M1055.07 176.414L1069.49 188.784M894.747 188.784H982.121M894.747 188.784H807.374M993.912 202.267L982.121 188.784M993.912 202.267L1006.81 217.019M993.912 202.267H1085.22M982.121 188.784H1069.49M807.374 188.784H720M807.374 188.784L803.768 176.414M1069.49 188.784L1085.22 202.267M803.768 176.414H720M1006.81 217.019L1020.99 233.23M1006.81 217.019H1102.42M1085.22 202.267L1102.42 217.019M1102.42 217.019L1121.32 233.23M920.66 233.23L931.095 251.128M920.66 233.23H1020.99M920.66 233.23H820.33M1020.99 233.23L1036.64 251.128M1020.99 233.23H1121.32M1121.32 233.23L1142.19 251.128M1036.64 251.128H931.095M1036.64 251.128H1142.19M931.095 251.128H825.548M825.548 251.128H720M825.548 251.128L820.33 233.23M820.33 233.23H720M647.806 12.8837L647.645 13.1596L647.484 13.4365L647.321 13.7149L647.159 13.9947L646.83 14.5576L646.665 14.841L646.499 15.1258M647.806 12.8837H683.903M647.806 12.8837H611.709M684.534 10.72L685.143 8.6306M684.534 10.72L683.903 12.8837M684.534 10.72H720M685.143 8.6306L685.217 8.3745L685.292 8.11947L685.366 7.86552L685.732 6.61196M685.143 8.6306H720M651.463 6.61196L651.607 6.36412L652.178 5.38426L652.601 4.66014M651.463 6.61196H685.732M651.463 6.61196H617.194M683.903 12.8837L683.822 13.1596L683.742 13.4365L683.66 13.7149L683.25 15.1258M683.903 12.8837H720M720 10.72V8.6306M720 10.72V12.8837M720 8.6306V6.61196M685.732 6.61196H720M685.732 6.61196L685.947 5.8724L686.019 5.62779L686.3 4.66014M720 12.8837V15.1258M754.269 6.61196L754.054 5.8724L753.982 5.62779L753.911 5.38426L753.84 5.14181L753.77 4.90044L753.7 4.66014M754.269 6.61196H720M720 6.61196V4.66014M646.499 15.1258H683.25M646.499 15.1258H609.749M682.572 17.4505L682.485 17.7468L682.399 18.0449L681.869 19.8624M682.572 17.4505L683.25 15.1258M682.572 17.4505H720M683.25 15.1258H720M609.749 15.1258H572.998M609.749 15.1258L610.245 14.5576L610.492 14.2756L610.737 13.9947L610.983 13.7149L611.225 13.4365L611.468 13.1596L611.709 12.8837M720 15.1258V17.4505M611.709 12.8837H575.612M681.869 19.8624L681.139 22.3667M681.869 19.8624H720M720 17.4505V19.8624M720 19.8624V22.3667M642.277 22.3667L640.76 24.969M642.277 22.3667H681.139M642.277 22.3667H603.416M681.139 22.3667L680.38 24.969M681.139 22.3667H720M720 22.3667V24.969M640.76 24.969H680.38M640.76 24.969H601.14M679.592 27.6747L680.38 24.969M679.592 27.6747L678.771 30.4904M679.592 27.6747H720M680.38 24.969H720M601.14 24.969H561.52M601.14 24.969L603.416 22.3667M720 24.969V27.6747M603.416 22.3667H564.555M678.771 30.4904L678.454 31.5759L678.133 32.6782L677.915 33.4228M678.771 30.4904H720M720 27.6747V30.4904M720 30.4904V33.4228M635.832 33.4228L634.949 34.935L634.727 35.3183L634.049 36.4795M635.832 33.4228H677.915M635.832 33.4228H593.747M677.915 33.4228L677.697 34.175L677.251 35.7033L677.025 36.4795M677.915 33.4228H720M720 33.4228V36.4795M634.049 36.4795H677.025M634.049 36.4795H591.074M676.095 39.6684L676.213 39.2621L677.025 36.4795M676.095 39.6684L675.125 42.998M676.095 39.6684H720M677.025 36.4795H720M591.074 36.4795H548.099M591.074 36.4795L593.747 33.4228M720 36.4795V39.6684M593.747 33.4228H551.662M675.125 42.998L674.11 46.4786M675.125 42.998H720M720 39.6684V42.998M720 42.998V46.4786M628.219 46.4786L626.097 50.12M628.219 46.4786H674.11M628.219 46.4786H582.329M674.11 46.4786L673.048 50.12M674.11 46.4786H720M720 46.4786V50.12M626.097 50.12H673.048M626.097 50.12H579.145M671.937 53.9339L673.048 50.12M671.937 53.9339L670.771 57.9327M671.937 53.9339H720M673.048 50.12H720M579.145 50.12H532.193M579.145 50.12L582.329 46.4786M720 50.12V53.9339M582.329 46.4786H536.439M670.771 57.9327L669.547 62.1305M670.771 57.9327H720M720 53.9339V57.9327M720 57.9327V62.1305M619.094 62.1305L616.522 66.5421M619.094 62.1305H669.547M619.094 62.1305H568.642M669.547 62.1305L668.261 66.5421M669.547 62.1305H720M720 62.1305V66.5421M616.522 66.5421H668.261M616.522 66.5421H564.783M666.908 71.1846L668.261 66.5421M666.908 71.1846L665.482 76.0764M666.908 71.1846H720M668.261 66.5421H720M564.783 66.5421H513.044M564.783 66.5421L568.642 62.1305M720 66.5421V71.1846M568.642 62.1305H518.189M665.482 76.0764L663.977 81.2386M665.482 76.0764H720M720 71.1846V76.0764M720 76.0764V81.2386M607.954 81.2386L604.774 86.6933M607.954 81.2386H663.977M607.954 81.2386H551.931M663.977 81.2386L662.387 86.6933M663.977 81.2386H720M720 81.2386V86.6933M604.774 86.6933H662.387M604.774 86.6933H547.16M660.704 92.4672L662.387 86.6933M660.704 92.4672L658.919 98.5881M660.704 92.4672H720M662.387 86.6933H720M547.16 86.6933H489.547M547.16 86.6933L551.931 81.2386M720 86.6933V92.4672M551.931 81.2386H495.907M658.919 98.5881L657.024 105.089M658.919 98.5881H720M720 92.4672V98.5881M720 98.5881V105.089M594.048 105.089L590.016 112.007M594.048 105.089H657.024M594.048 105.089H531.073M657.024 105.089L655.008 112.007M657.024 105.089H720M720 105.089V112.007M590.016 112.007H655.008M590.016 112.007H525.023M652.858 119.382L655.008 112.007M652.858 119.382L650.561 127.261M652.858 119.382H720M655.008 112.007H720M525.023 112.007H460.031M525.023 112.007L531.073 105.089M720 112.007V119.382M531.073 105.089H468.097M650.561 127.261L648.101 135.699M650.561 127.261H720M720 119.382V127.261M720 127.261V135.699M576.203 135.699L570.922 144.756M576.203 135.699H648.101M576.203 135.699H504.304M648.101 135.699L645.461 144.756M648.101 135.699H720M720 135.699V144.756M570.922 144.756H645.461M570.922 144.756H496.383M642.619 154.504L645.461 144.756M642.619 154.504L639.553 165.025M642.619 154.504H720M645.461 144.756H720M496.383 144.756H421.844M496.383 144.756L504.304 135.699M720 144.756V154.504M504.304 135.699H432.405M639.553 165.025L636.232 176.414M639.553 165.025H720M720 154.504V165.025M720 165.025V176.414M552.465 176.414L545.253 188.784M552.465 176.414H636.232M552.465 176.414H468.696M636.232 176.414L632.626 188.784M636.232 176.414H720M720 176.414V188.784M545.253 188.784H632.626M545.253 188.784H457.879M628.696 202.267L632.626 188.784M628.696 202.267L624.396 217.019M628.696 202.267H720M632.626 188.784H720M457.879 188.784H370.505M457.879 188.784L468.696 176.414M720 188.784V202.267M468.696 176.414H384.929M624.396 217.019L619.67 233.23M624.396 217.019H720M720 202.267V217.019M720 217.019V233.23M519.34 233.23L508.905 251.128M519.34 233.23H619.67M519.34 233.23H419.009M619.67 233.23L614.452 251.128M619.67 233.23H720M720 233.23V251.128M614.452 251.128H508.905M614.452 251.128H720M508.905 251.128H403.358M403.358 251.128H297.81M403.358 251.128L419.009 233.23M419.009 233.23H318.679M503.418 12.8837L501.475 13.9947L499.497 15.1258M503.418 12.8837H539.515M503.418 12.8837H467.322M542.669 10.72L545.714 8.6306M542.669 10.72L539.515 12.8837M542.669 10.72H578.135M545.714 8.6306H580.571M545.714 8.6306L547.93 7.11015L548.657 6.61196M514.388 6.61196H548.657M514.388 6.61196L515.682 5.8724L517.802 4.66014M514.388 6.61196H480.119M539.515 12.8837L536.248 15.1258M539.515 12.8837H575.612M578.135 10.72L580.571 8.6306M578.135 10.72L575.612 12.8837M580.571 8.6306L581.759 7.61266L582.636 6.86053L582.925 6.61196M548.657 6.61196H582.925M548.657 6.61196L550.799 5.14181L551.501 4.66014M575.612 12.8837L573.66 14.5576L572.998 15.1258M617.194 6.61196L617.41 6.36412L617.841 5.8724L618.479 5.14181L618.901 4.66014M617.194 6.61196H582.925M582.925 6.61196L583.214 6.36412L583.788 5.8724L585.201 4.66014M499.497 15.1258H536.248M499.497 15.1258H462.746M532.859 17.4505L533.29 17.1552L533.718 16.861L535.412 15.6987L536.248 15.1258M532.859 17.4505L530.235 19.2507L529.343 19.8624M532.859 17.4505H570.288M536.248 15.1258H572.998M462.746 15.1258H425.996M462.746 15.1258L466.193 13.4365L467.322 12.8837M572.998 15.1258L570.288 17.4505M467.322 12.8837H431.224M529.343 19.8624L528.895 20.1702L528.444 20.4795L527.079 21.4166L526.618 21.7316L525.693 22.3667M529.343 19.8624H567.474M570.288 17.4505L569.941 17.7468L567.474 19.8624M567.474 19.8624L567.116 20.1702L566.755 20.4795L566.393 20.7905L564.555 22.3667M486.832 22.3667L482.281 24.969M486.832 22.3667H525.693M486.832 22.3667H447.971M525.693 22.3667L521.9 24.969M525.693 22.3667H564.555M564.555 22.3667L561.52 24.969M482.281 24.969H521.9M482.281 24.969H442.661M517.957 27.6747L521.9 24.969M517.957 27.6747L513.853 30.4904M517.957 27.6747H558.365M521.9 24.969H561.52M442.661 24.969H403.041M442.661 24.969L447.971 22.3667M561.52 24.969L558.365 27.6747M447.971 22.3667H409.109M513.853 30.4904L509.579 33.4228M513.853 30.4904H555.082M558.365 27.6747L557.557 28.368L555.082 30.4904M555.082 30.4904L553.816 31.5759L552.53 32.6782L551.662 33.4228M467.494 33.4228L464.849 34.935L462.148 36.4795M467.494 33.4228H509.579M467.494 33.4228H425.409M509.579 33.4228L505.123 36.4795M509.579 33.4228H551.662M551.662 33.4228L548.099 36.4795M462.148 36.4795H505.123M462.148 36.4795H419.173M500.476 39.6684L505.123 36.4795M500.476 39.6684L495.622 42.998M500.476 39.6684H544.38M505.123 36.4795H548.099M419.173 36.4795H376.197M419.173 36.4795L425.409 33.4228M548.099 36.4795L544.38 39.6684M425.409 33.4228H383.326M495.622 42.998L494.375 43.8536L490.549 46.4786M495.622 42.998H540.497M544.38 39.6684L540.497 42.998M540.497 42.998L540 43.4248L538.491 44.7189L536.439 46.4786M444.659 46.4786L438.29 50.12M444.659 46.4786H490.549M444.659 46.4786H398.769M490.549 46.4786L485.241 50.12M490.549 46.4786H536.439M536.439 46.4786L532.193 50.12M438.29 50.12H485.241M438.29 50.12H391.338M479.682 53.9339L483.188 51.5295L485.241 50.12M479.682 53.9339L473.854 57.9327M479.682 53.9339H527.746M485.241 50.12H532.193M391.338 50.12H344.386M391.338 50.12L398.769 46.4786M532.193 50.12L527.746 53.9339M398.769 46.4786H352.878M473.854 57.9327L467.735 62.1305M473.854 57.9327H523.083M527.746 53.9339L523.083 57.9327M523.083 57.9327L518.189 62.1305M417.282 62.1305L409.566 66.5421M417.282 62.1305H467.735M417.282 62.1305H366.83M467.735 62.1305L461.305 66.5421M467.735 62.1305H518.189M518.189 62.1305L513.044 66.5421M409.566 66.5421H461.305M409.566 66.5421H357.827M454.539 71.1846L461.305 66.5421M454.539 71.1846L447.409 76.0764M454.539 71.1846H507.631M461.305 66.5421H513.044M357.827 66.5421H306.089M357.827 66.5421L366.83 62.1305M513.044 66.5421L507.631 71.1846M366.83 62.1305H316.377M447.409 76.0764L439.885 81.2386M447.409 76.0764H501.927M507.631 71.1846L501.927 76.0764M501.927 76.0764L495.907 81.2386M383.862 81.2386L374.321 86.6933M383.862 81.2386H439.885M383.862 81.2386H327.838M439.885 81.2386L431.934 86.6933M439.885 81.2386H495.907M495.907 81.2386L489.547 86.6933M374.321 86.6933H431.934M374.321 86.6933H316.707M423.518 92.4672L431.934 86.6933M423.518 92.4672L414.597 98.5881M423.518 92.4672H482.815M431.934 86.6933H489.547M316.707 86.6933H259.094M316.707 86.6933L327.838 81.2386M489.547 86.6933L482.815 92.4672M327.838 81.2386H271.816M414.597 98.5881L405.121 105.089M414.597 98.5881H475.677M482.815 92.4672L475.677 98.5881M475.677 98.5881L468.097 105.089M342.145 105.089L330.047 112.007M342.145 105.089H405.121M342.145 105.089H279.169M405.121 105.089L395.039 112.007M405.121 105.089H468.097M468.097 105.089L460.031 112.007M330.047 112.007H395.039M330.047 112.007H265.054M384.29 119.382L395.039 112.007M384.29 119.382L372.804 127.261M384.29 119.382H451.432M395.039 112.007H460.031M265.054 112.007H200.062M265.054 112.007L279.169 105.089M460.031 112.007L451.432 119.382M279.169 105.089H216.193M372.804 127.261L360.506 135.699M372.804 127.261H442.244M451.432 119.382L442.244 127.261M442.244 127.261L432.405 135.699M288.607 135.699L272.765 144.756M288.607 135.699H360.506M288.607 135.699H216.708M360.506 135.699L347.304 144.756M360.506 135.699H432.405M432.405 135.699L421.844 144.756M272.765 144.756H347.304M272.765 144.756H198.226M333.096 154.504L347.304 144.756M333.096 154.504L317.761 165.025M333.096 154.504H410.477M347.304 144.756H421.844M198.226 144.756H123.687M198.226 144.756L216.708 135.699M421.844 144.756L410.477 154.504M216.708 135.699H144.809M317.761 165.025L301.161 176.414M317.761 165.025H398.209M410.477 154.504L398.209 165.025M398.209 165.025L384.929 176.414M217.393 176.414L195.758 188.784M217.393 176.414H301.161M217.393 176.414H133.625M301.161 176.414L283.132 188.784M301.161 176.414H384.929M384.929 176.414L370.505 188.784M195.758 188.784H283.132M195.758 188.784H108.384M263.48 202.267L283.132 188.784M263.48 202.267L241.977 217.019M263.48 202.267H354.784M283.132 188.784H370.505M108.384 188.784H21.0104M108.384 188.784L133.625 176.414M370.505 188.784L354.784 202.267M133.625 176.414H49.8579M241.977 217.019L218.349 233.23M241.977 217.019H337.582M354.784 202.267L337.582 217.019M337.582 217.019L318.679 233.23M118.019 233.23L86.7156 251.128M118.019 233.23H218.349M118.019 233.23H17.6882M218.349 233.23L192.263 251.128M218.349 233.23H318.679M318.679 233.23L297.81 251.128M192.263 251.128H86.7156M192.263 251.128H297.81M86.7156 251.128L0.387546 251.127M17.6882 233.23L0.387546 241.709M17.6882 233.23H0.387546M359.03 12.8837L352.495 15.1258M359.03 12.8837H395.127M359.03 12.8837H322.934M400.804 10.72L406.286 8.6306M400.804 10.72L395.127 12.8837M400.804 10.72H436.27M406.286 8.6306H441.143M406.286 8.6306L411.582 6.61196M377.313 6.61196H411.582M377.313 6.61196L379.47 5.8724L383.003 4.66014M377.313 6.61196H343.045M395.127 12.8837L389.245 15.1258M395.127 12.8837H431.224M436.27 10.72L441.143 8.6306M436.27 10.72L431.224 12.8837M441.143 8.6306L444.689 7.11015L445.851 6.61196M411.582 6.61196L412.232 6.36412L416.703 4.66014M411.582 6.61196H445.851M431.224 12.8837L425.996 15.1258M480.119 6.61196L484.102 4.66014M480.119 6.61196H445.851M445.851 6.61196L447.576 5.8724L450.403 4.66014M352.495 15.1258H389.245M352.495 15.1258H315.744M383.146 17.4505L389.245 15.1258M383.146 17.4505L376.818 19.8624M383.146 17.4505H420.575M389.245 15.1258H425.996M315.744 15.1258H278.994M315.744 15.1258L322.934 12.8837M425.996 15.1258L420.575 17.4505M322.934 12.8837H286.837M376.818 19.8624L375.198 20.4795L370.247 22.3667M376.818 19.8624H414.95M420.575 17.4505L414.95 19.8624M414.95 19.8624L409.109 22.3667M331.386 22.3667L330.454 22.6867L323.801 24.969M331.386 22.3667H370.247M331.386 22.3667H292.525M370.247 22.3667L363.421 24.969M370.247 22.3667H409.109M409.109 22.3667L408.364 22.6867L403.041 24.969M323.801 24.969H363.421M323.801 24.969H284.181M356.322 27.6747L363.421 24.969M356.322 27.6747L348.935 30.4904M356.322 27.6747H396.731M363.421 24.969H403.041M284.181 24.969H244.561M284.181 24.969L292.525 22.3667M403.041 24.969L396.731 27.6747M292.525 22.3667H253.663M348.935 30.4904L341.241 33.4228M348.935 30.4904H390.164M396.731 27.6747L390.164 30.4904M390.164 30.4904L383.326 33.4228M299.157 33.4228L290.247 36.4795M299.157 33.4228H341.241M299.157 33.4228H257.073M341.241 33.4228L333.222 36.4795M341.241 33.4228H383.326M383.326 33.4228L376.197 36.4795M290.247 36.4795H333.222M290.247 36.4795H247.271M324.856 39.6684L333.222 36.4795M324.856 39.6684L316.119 42.998M324.856 39.6684H368.76M333.222 36.4795H376.197M247.271 36.4795H204.296M247.271 36.4795L257.073 33.4228M376.197 36.4795L368.76 39.6684M257.073 33.4228H214.988M316.119 42.998L306.988 46.4786M316.119 42.998H360.995M368.76 39.6684L360.995 42.998M360.995 42.998L352.878 46.4786M261.098 46.4786L250.483 50.12M261.098 46.4786H306.988M261.098 46.4786H215.208M306.988 46.4786L297.435 50.12M306.988 46.4786H352.878M352.878 46.4786L344.386 50.12M250.483 50.12H297.435M250.483 50.12H203.531M287.428 53.9339L297.435 50.12M287.428 53.9339L276.937 57.9327M287.428 53.9339H335.492M297.435 50.12H344.386M203.531 50.12H156.579M203.531 50.12L215.208 46.4786M344.386 50.12L335.492 53.9339M215.208 46.4786H169.317M276.937 57.9327L265.924 62.1305M276.937 57.9327H326.166M335.492 53.9339L326.166 57.9327M326.166 57.9327L316.377 62.1305M215.471 62.1305L202.611 66.5421M215.471 62.1305H265.924M215.471 62.1305H165.018M265.924 62.1305L254.349 66.5421M265.924 62.1305H316.377M316.377 62.1305L306.089 66.5421M202.611 66.5421H254.349M202.611 66.5421H150.871M242.169 71.1846L254.349 66.5421M242.169 71.1846L229.335 76.0764M242.169 71.1846H295.262M254.349 66.5421H306.089M150.871 66.5421H99.1326M150.871 66.5421L165.018 62.1305M306.089 66.5421L295.262 71.1846M165.018 62.1305H114.565M229.335 76.0764L215.792 81.2386M229.335 76.0764H283.853M295.262 71.1846L283.853 76.0764M283.853 76.0764L271.816 81.2386M159.769 81.2386L143.868 86.6933M159.769 81.2386H215.792M159.769 81.2386H103.746M215.792 81.2386L201.481 86.6933M215.792 81.2386H271.816M271.816 81.2386L259.094 86.6933M143.868 86.6933H201.481M143.868 86.6933H86.2546M186.333 92.4672L201.481 86.6933M186.333 92.4672L170.274 98.5881M186.333 92.4672H245.629M201.481 86.6933H259.094M86.2546 86.6933H28.6413M86.2546 86.6933L103.746 81.2386M259.094 86.6933L245.629 92.4672M103.746 81.2386H47.7231M170.274 98.5881L153.217 105.089M170.274 98.5881H231.355M245.629 92.4672L231.355 98.5881M231.355 98.5881L216.193 105.089M90.2417 105.089L70.0775 112.007M90.2417 105.089H153.217M90.2417 105.089H27.2658M153.217 105.089L135.07 112.007M153.217 105.089H216.193M216.193 105.089L200.062 112.007M70.0775 112.007H135.07M70.0775 112.007H5.08526M115.72 119.382L135.07 112.007M115.72 119.382L95.0481 127.261M115.72 119.382H182.863M135.07 112.007H200.062M5.08526 112.007L27.2658 105.089M5.08526 112.007H0.387546M5.08526 112.007L0.387546 113.472M200.062 112.007L182.863 119.382M27.2658 105.089H0.387546M95.0481 127.261L72.911 135.699M95.0481 127.261H164.487M182.863 119.382L164.487 127.261M164.487 127.261L144.809 135.699M1.01196 135.699H72.911M1.01196 135.699H0.387546M1.01196 135.699L0.387546 135.913M72.911 135.699L49.1473 144.756M72.911 135.699H144.809M144.809 135.699L123.687 144.756M23.5726 154.504L49.1473 144.756M23.5726 154.504H100.953M23.5726 154.504H0.387546M23.5726 154.504L0.387546 163.342M49.1473 144.756H123.687M49.1473 144.756H0.387546M123.687 144.756L100.953 154.504M100.953 154.504L76.4183 165.025M76.4183 165.025L49.8579 176.414M76.4183 165.025H0.387546M49.8579 176.414L21.0104 188.784M49.8579 176.414H0.387546M21.0104 188.784H0.387546M21.0104 188.784L0.387546 197.627M214.642 12.8837L205.493 15.1258M214.642 12.8837H250.74M214.642 12.8837H178.546M258.939 10.72L266.857 8.6306M258.939 10.72L250.74 12.8837M258.939 10.72H294.405M266.857 8.6306H301.714M266.857 8.6306L274.507 6.61196M240.239 6.61196H274.507M240.239 6.61196L248.204 4.66014M240.239 6.61196H205.97M250.74 12.8837L242.243 15.1258M250.74 12.8837H286.837M294.405 10.72L301.714 8.6306M294.405 10.72L286.837 12.8837M301.714 8.6306L308.776 6.61196M274.507 6.61196L275.445 6.36412L281.904 4.66014M274.507 6.61196H308.776M286.837 12.8837L278.994 15.1258M343.045 6.61196L349.303 4.66014M343.045 6.61196H308.776M308.776 6.61196L309.642 6.36412L315.603 4.66014M205.493 15.1258H242.243M205.493 15.1258H168.742M233.433 17.4505L242.243 15.1258M233.433 17.4505L224.293 19.8624M233.433 17.4505H270.862M242.243 15.1258H278.994M168.742 15.1258H131.992M168.742 15.1258L178.546 12.8837M278.994 15.1258L270.862 17.4505M178.546 12.8837H142.449M224.293 19.8624L214.802 22.3667M224.293 19.8624H262.424M270.862 17.4505L269.824 17.7468L262.424 19.8624M262.424 19.8624L253.663 22.3667M175.941 22.3667L165.321 24.969M175.941 22.3667H214.802M175.941 22.3667H137.079M214.802 22.3667L204.941 24.969M214.802 22.3667H253.663M253.663 22.3667L244.561 24.969M165.321 24.969H204.941M165.321 24.969H125.701M194.687 27.6747L204.941 24.969M194.687 27.6747L184.017 30.4904M194.687 27.6747H235.096M204.941 24.969H244.561M125.701 24.969H86.0814M125.701 24.969L137.079 22.3667M244.561 24.969L235.096 27.6747M137.079 22.3667H98.2181M184.017 30.4904L172.904 33.4228M184.017 30.4904H225.246M235.096 27.6747L225.246 30.4904M225.246 30.4904L214.988 33.4228M130.82 33.4228L118.345 36.4795M130.82 33.4228H172.904M130.82 33.4228H88.735M172.904 33.4228L161.321 36.4795M172.904 33.4228H214.988M214.988 33.4228L204.296 36.4795M118.345 36.4795H161.321M118.345 36.4795H75.3697M149.236 39.6684L161.321 36.4795M149.236 39.6684L136.617 42.998M149.236 39.6684H193.141M161.321 36.4795H204.296M75.3697 36.4795H32.3946M75.3697 36.4795L88.735 33.4228M204.296 36.4795L193.141 39.6684M88.735 33.4228H46.6511M136.617 42.998L123.427 46.4786M136.617 42.998H181.492M193.141 39.6684L181.492 42.998M181.492 42.998L169.317 46.4786M77.5368 46.4786L62.676 50.12M77.5368 46.4786H123.427M77.5368 46.4786H31.6472M123.427 46.4786L109.628 50.12M123.427 46.4786H169.317M169.317 46.4786L156.579 50.12M62.676 50.12H109.628M95.174 53.9339L109.628 50.12M95.174 53.9339L80.0202 57.9327M95.174 53.9339H143.238M109.628 50.12H156.579M156.579 50.12L143.238 53.9339M31.6472 46.4786H0.387546M80.0202 57.9327L64.1122 62.1305M80.0202 57.9327H129.249M143.238 53.9339L129.249 57.9327M129.249 57.9327L114.565 62.1305M13.6591 62.1305H64.1122M13.6591 62.1305H0.387546M13.6591 62.1305L0.387546 65.3824M64.1122 62.1305L47.3932 66.5421M64.1122 62.1305H114.565M114.565 62.1305L99.1326 66.5421M29.8002 71.1846L47.3932 66.5421M29.8002 71.1846L11.2619 76.0764M29.8002 71.1846H82.8926M29.8002 71.1846H0.387546M47.3932 66.5421H99.1326M47.3932 66.5421H0.387546M99.1326 66.5421L82.8926 71.1846M0.241375 65.4182L0.387546 65.3824M11.2619 76.0764H65.7801M11.2619 76.0764H0.387546M11.2619 76.0764L0.387546 78.9459M82.8926 71.1846L65.7801 76.0764M65.7801 76.0764L47.7231 81.2386M47.7231 81.2386L28.6413 86.6933M47.7231 81.2386H0.387546M8.44421 92.4672L28.6413 86.6933M8.44421 92.4672H0.387546M8.44421 92.4672L0.387546 94.7702M28.6413 86.6933H0.387546M70.2552 12.8837L58.491 15.1258M70.2552 12.8837H106.352M70.2552 12.8837H34.1576M117.074 10.72L127.428 8.6306M117.074 10.72L106.352 12.8837M117.074 10.72H152.541M127.428 8.6306H162.285M127.428 8.6306L137.432 6.61196M103.164 6.61196H137.432M103.164 6.61196L113.405 4.66014M103.164 6.61196H68.8954M106.352 12.8837L95.2415 15.1258M106.352 12.8837H142.449M152.541 10.72L162.285 8.6306M152.541 10.72L142.449 12.8837M162.285 8.6306L171.701 6.61196M137.432 6.61196H171.701M137.432 6.61196L147.105 4.66014M142.449 12.8837L131.992 15.1258M205.97 6.61196L214.504 4.66014M205.97 6.61196H171.701M171.701 6.61196L180.805 4.66014M58.491 15.1258H95.2415M58.491 15.1258H21.7405M83.7209 17.4505L95.2415 15.1258M83.7209 17.4505L71.7679 19.8624M83.7209 17.4505H121.149M95.2415 15.1258H131.992M21.7405 15.1258L34.1576 12.8837M21.7405 15.1258H0.387546M131.992 15.1258L121.149 17.4505M34.1576 12.8837H0.387546M71.7679 19.8624L59.3568 22.3667M71.7679 19.8624H109.899M121.149 17.4505L109.899 19.8624M109.899 19.8624L98.2181 22.3667M20.4955 22.3667L6.84156 24.969M20.4955 22.3667H59.3568M20.4955 22.3667H0.387546M59.3568 22.3667L46.4615 24.969M59.3568 22.3667H98.2181M98.2181 22.3667L86.0814 24.969M33.0527 27.6747L46.4615 24.969M33.0527 27.6747L19.099 30.4904M33.0527 27.6747H73.4612M33.0527 27.6747H0.387546M46.4615 24.969H6.84156M46.4615 24.969H86.0814M6.84156 24.969L0.387546 26.1988M6.84156 24.969H0.387546M86.0814 24.969L73.4612 27.6747M19.099 30.4904L4.56654 33.4228M19.099 30.4904H60.3283M19.099 30.4904H0.387546M73.4612 27.6747L60.3283 30.4904M60.3283 30.4904L46.6511 33.4228M4.56654 33.4228H46.6511M4.56654 33.4228L0.387546 34.266M4.56654 33.4228H0.387546M46.6511 33.4228L32.3946 36.4795M17.5211 39.6684L32.3946 36.4795M17.5211 39.6684L1.99018 42.998M17.5211 39.6684H0.387546M32.3946 36.4795H0.387546M0.162665 36.4795H0.387546M1.99018 42.998H0.387546M1.99018 42.998L0.387546 43.3417M0 43.4248L0.387546 43.3417M10.6758 10.72L22.8567 8.6306M10.6758 10.72H0.387546M10.6758 10.72L0.387546 12.4845M22.8567 8.6306L34.6269 6.61196M22.8567 8.6306H0.387546M68.8954 6.61196L79.7053 4.66014M68.8954 6.61196H34.6269M34.6269 6.61196L46.0057 4.66014M34.6269 6.61196H0.387546M1191.8 4.66014H1225.5M1191.8 4.66014H1158.1M1217.24 2.77224L1219.28 3.23847L1225.5 4.66014M1217.24 2.77224H1250.39M1225.5 4.66014H1259.2M1250.39 2.77224L1252.56 3.23847L1253.66 3.47266L1259.2 4.66014M1259.2 4.66014H1292.89M1292.89 4.66014H1326.6M1158.1 4.66014H1124.4M1326.6 4.66014H1360.29M1360.29 4.66014L1349.84 2.77224M1360.29 4.66014H1393.99M1349.84 2.77224H1382.99M1057 4.66014H1090.7M1057 4.66014H1023.3M1084.64 2.77224L1086.14 3.23847L1086.89 3.47266L1090.7 4.66014M1084.64 2.77224H1117.79M1090.7 4.66014H1124.4M1117.79 2.77224L1124.4 4.66014M1023.3 4.66014H989.598M922.198 4.66014H955.898M922.198 4.66014H888.499M952.045 2.77224L952.52 3.00464L952.996 3.23847L953.475 3.47266L955.898 4.66014M952.045 2.77224H985.194M955.898 4.66014H989.598M985.194 2.77224L989.598 4.66014M888.499 4.66014H854.798M787.399 4.66014H821.099M787.399 4.66014H753.7M819.448 2.77224L821.099 4.66014M819.448 2.77224H852.598M821.099 4.66014H854.798M852.598 2.77224L852.869 3.00464L853.141 3.23847L853.415 3.47266L854.798 4.66014M753.7 4.66014H720M652.601 4.66014H686.3M652.601 4.66014H618.901M686.851 2.77224L686.3 4.66014M686.851 2.77224H720M686.3 4.66014H720M720 2.77224V4.66014M618.901 4.66014H585.201M517.802 4.66014H551.501M517.802 4.66014H484.102M554.253 2.77224L553.574 3.23847L552.198 4.18206L551.501 4.66014M554.253 2.77224H587.402M551.501 4.66014H585.201M587.402 2.77224L587.131 3.00464L586.859 3.23847L586.585 3.47266L585.201 4.66014M484.102 4.66014H450.403M383.003 4.66014H416.703M383.003 4.66014H349.303M421.656 2.77224L420.433 3.23847L419.817 3.47266L416.703 4.66014M421.656 2.77224H454.806M416.703 4.66014H450.403M454.806 2.77224L454.263 3.00464L450.403 4.66014M349.303 4.66014H315.603M248.204 4.66014H281.904M248.204 4.66014H214.504M289.059 2.77224L287.292 3.23847L286.403 3.47266L281.904 4.66014M289.059 2.77224H322.208M281.904 4.66014H315.603M322.208 2.77224L321.394 3.00464L315.603 4.66014M214.504 4.66014H180.805M113.405 4.66014H147.105M113.405 4.66014H79.7053M156.461 2.77224L147.105 4.66014M156.461 2.77224H189.61M147.105 4.66014H180.805M189.61 2.77224L187.437 3.23847L186.342 3.47266L180.805 4.66014M79.7053 4.66014H46.0057M23.8641 2.77224L12.3061 4.66014M23.8641 2.77224H57.0136M23.8641 2.77224H0.387546M12.3061 4.66014H46.0057M12.3061 4.66014L0.387546 6.60719M12.3061 4.66014H0.387546M57.0136 2.77224L54.2955 3.23847L46.0057 4.66014M1382.99 2.77224L1385.7 3.23847L1393.99 4.66014M1393.99 4.66014H1427.69M1427.69 4.66014L1439.61 6.60719M1427.69 4.66014H1439.61M1439.61 94.7702V92.4672M1439.61 94.7702V98.5881M1439.61 92.4672V86.6933M1439.61 98.5881V99.729V105.089M1439.61 105.089V112.007M1439.61 50.12V46.4786M1439.61 50.12V53.6274M1439.61 2.77224V4.66014M1439.61 4.66014V6.60719M1439.61 6.60719L1439.64 6.61196H1439.61M1439.61 6.60719V6.61196M1439.61 6.61196V8.6306M1439.61 8.6306V10.72M1439.61 10.72V12.4845M1439.61 12.4845V12.8837M1439.61 12.8837V15.1258M1439.61 15.1258V17.4505M1439.61 17.4505V18.9806M1439.61 18.9806V19.8624M1439.61 19.8624V22.3667M1439.61 22.3667V24.969M1439.61 24.969V26.1988M1439.61 26.1988V27.6747M1439.61 27.6747V30.4904M1439.61 30.4904V33.4228M1439.61 33.4228V34.2659M1439.61 34.2659V36.4795M1439.61 36.4795V39.6684M1439.61 39.6684V42.998M1439.61 42.998V43.3417M1439.61 43.3417V46.4786M1439.61 53.9339V57.9327M1439.61 53.9339V53.6274M1439.61 57.9327V62.1305M1439.61 62.1305V65.3824M1439.61 65.3824V66.5421M1439.61 66.5421V71.1846M1439.61 71.1846V76.0764M1439.61 76.0764V78.9459M1439.61 78.9459V81.2386M1439.61 81.2386V86.6933M1439.61 112.007V113.472M1439.61 113.472V119.382M1439.61 119.382V127.261M1439.61 127.261V135.699M1439.61 135.699V135.913M1439.61 135.913V144.756M1439.61 144.756V154.504M1439.61 154.504V163.342M1439.61 163.342V165.025M1439.61 165.025V176.414M1439.61 176.414V188.784M1439.61 188.784V197.627M1439.61 197.627V202.267M1439.61 202.267V217.019M1439.61 217.019V233.23M1439.61 233.23V241.709M1439.61 241.709V251.127M1439.61 251.127V251.191H0.387546V251.127M0.387546 53.9339V57.9327M0.387546 53.9339V53.6274M0.387546 53.6274V50.12M0.387546 50.12V46.4786M0.387546 46.4786V43.3417M0.387546 43.3417V42.998M0.387546 42.998V39.6684M0.387546 39.6684V36.4795M0.387546 36.4795V34.266M0.387546 34.266V33.4228M0.387546 33.4228V30.4904M0.387546 30.4904V27.6747M0.387546 27.6747V26.1988M0.387546 26.1988V24.969M0.387546 24.969V22.3667M0.387546 22.3667V19.8624M0.387546 19.8624V18.9806M0.387546 18.9806V17.4505M0.387546 17.4505V15.1258M0.387546 15.1258V12.8837M0.387546 12.8837V12.4845M0.387546 12.4845V10.72M0.387546 10.72V8.6306M0.387546 8.6306V6.61196M0.387546 6.61196H0.35831L0.387546 6.60719M0.387546 6.61196V6.60719M0.387546 6.60719V4.66014M0.387546 4.66014V2.77224M0.387546 251.127V241.709M0.387546 241.709V233.23M0.387546 233.23V217.019M0.387546 217.019V202.267M0.387546 202.267V197.627M0.387546 197.627V188.784M0.387546 188.784V176.414M0.387546 176.414V165.025M0.387546 165.025V163.342M0.387546 163.342V154.504M0.387546 154.504V144.756M0.387546 144.756V135.913M0.387546 135.913V135.699M0.387546 135.699V127.261M0.387546 127.261V119.382M0.387546 119.382V113.472M0.387546 113.472V112.007M0.387546 112.007V105.089M0.387546 105.089V98.5881M0.387546 98.5881V94.7702M0.387546 94.7702V92.4672M0.387546 92.4672V86.6933M0.387546 86.6933V81.2386M0.387546 81.2386V78.9459M0.387546 78.9459V76.0764M0.387546 76.0764V71.1846M0.387546 71.1846V66.5421M0.387546 66.5421V65.3824M0.387546 65.3824V62.1305M0.387546 62.1305V57.9327" stroke="url(#paint0_linear_2334_5592)" stroke-width="1.8895" stroke-miterlimit="10" stroke-linecap="round" stroke-linejoin="round"/>
<defs>
<linearGradient id="paint0_linear_2334_5592" x1="720" y1="0.944702" x2="720" y2="176.398" gradientUnits="userSpaceOnUse">
<stop stop-color="#CED2DF" stop-opacity="0"/>
<stop offset="1" stop-color="#5D606A"/>
</linearGradient>
</defs>
</svg>
