<svg width="1440" height="863" viewBox="0 0 1440 863" fill="none" xmlns="http://www.w3.org/2000/svg">
<path opacity="0.25" fill-rule="evenodd" clip-rule="evenodd" d="M143.874 0.502962H0.503643V143.68H129.021L143.874 128.846V0.502962ZM159.123 143.68L144.462 129.038V0.502962H287.832V143.68H159.123ZM144.462 158.69L158.905 144.267H287.832V287.443H144.462V158.69ZM129.239 144.267L143.874 158.882V287.443H0.503643V144.267H129.239ZM0 0V143.764V144.183V287.527V287.946V431.29V431.709V575.054V575.473V718.817V719.236V863H143.958H144.378H287.916H288.336H431.874H432.294H575.832H576.252H719.79H720.21H863.748H864.167H1007.71H1008.13H1151.66H1152.08H1295.62H1296.04H1440L1440 719.236V575.473V575.054V431.29V287.946V144.183V143.764V0H1296.04H1295.62H1152.08H1151.66H1008.13H1007.71H864.167H863.748H720.21H719.79H576.252H575.832H432.294H431.874H288.336H287.916H144.378H143.958H0ZM288.419 0.502962H431.79V143.68H288.419V0.502962ZM575.748 0.502962H432.378V143.68H575.748V0.502962ZM576.336 0.502962H719.706V143.68H576.336V0.502962ZM863.664 0.502962H720.293V143.68H863.664V0.502962ZM864.252 0.502962H1007.62V143.68H864.252V0.502962ZM1151.58 0.502962H1008.21V143.68H1151.58V0.502962ZM1152.17 0.502962H1295.54V143.68H1152.17V0.502962ZM1439.5 0.502962H1296.13V143.68H1439.5V0.502962ZM288.419 144.267H431.79V287.443H288.419V144.267ZM575.748 144.267H432.378V287.443H561.327L575.748 273.042V144.267ZM590.526 287.443L576.336 273.272V144.267H719.706V287.443H590.526ZM576.336 302.885L591.162 288.079L591.113 288.03H719.706V431.206H576.336V302.885ZM560.74 288.03L560.691 288.079L575.748 303.116V431.206H432.378V288.03H560.74ZM863.664 144.267H720.293V287.443H863.664V144.267ZM864.252 144.267H1007.62V287.443H864.252V144.267ZM1151.58 144.267H1008.21V287.443H1151.58V144.267ZM1152.17 144.267H1295.54V247.721L1295.29 247.964L1255.76 287.443H1152.17V144.267ZM1255.17 288.03H1152.17V417.101L1152.65 416.62L1167.25 431.206H1295.54V328.436L1295.29 328.193L1255.51 288.467L1255.13 288.079L1255.17 288.03ZM1295.54 327.66L1255.9 288.079L1255.95 288.03H1280.5L1280.45 288.079L1295.54 303.149V327.66ZM1296.13 328.14V431.206H1439.5V288.03H1336.19L1336.24 288.079L1335.85 288.467L1296.13 328.14ZM1335.41 288.03L1335.46 288.079L1296.13 327.363V302.853L1310.92 288.079L1310.87 288.03H1335.41ZM1335.6 287.443H1439.5V144.267H1296.13V248.018L1335.6 287.443ZM1296.13 248.795L1334.83 287.443H1310.28L1296.13 273.305V248.795ZM1295.54 248.498L1256.54 287.443H1281.08L1295.54 273.009V248.498ZM1152.17 446.57L1152.65 447.051L1167.89 431.836L1167.84 431.793H1295.54V574.97H1152.17V446.57ZM1137.46 431.793L1137.41 431.836L1151.58 445.983V574.97H1008.21V431.793H1137.46ZM1151.58 417.688L1138.04 431.206H1008.21V288.03H1151.58V417.688ZM0.503643 288.03H143.874V431.206H0.503643V288.03ZM287.832 288.03H144.462V431.206H287.832V288.03ZM288.419 288.03H431.79V431.206H288.419V288.03ZM863.664 288.03H720.294V431.206H863.664V288.03ZM864.252 288.03H1007.62V431.206H864.252V288.03ZM0.503643 431.793H143.874V574.97H0.503643V431.793ZM287.832 431.793H144.462V574.97H248.218L248.032 574.784L248.421 574.395L287.832 535.037V431.793ZM287.832 535.814L248.81 574.784L248.996 574.97H273.54L273.354 574.784L287.832 560.325V535.814ZM288.419 559.738V535.227L288.589 535.058L328.369 574.784L328.183 574.97H303.639L303.825 574.784L288.589 559.568L288.419 559.738ZM288.419 589.829L288.589 589.999L303.051 575.557H327.595L288.589 614.51L288.419 614.34V589.829ZM274.128 575.557L287.832 589.243V613.753L249.584 575.557H274.128ZM248.806 575.557H144.462V718.733H287.832V614.53L248.806 575.557ZM288.419 615.117V718.733H431.79V575.557H328.373L288.978 614.898L288.589 615.287L288.419 615.117ZM328.961 574.97H431.79V431.793H288.419V534.451L288.589 534.281L288.978 534.669L328.758 574.395L329.147 574.784L328.961 574.97ZM575.748 431.793H432.378V574.97H575.748V431.793ZM576.336 431.793H719.706V574.97H576.336V431.793ZM863.664 431.793H720.293V574.97H863.664V431.793ZM864.252 431.793H1007.62V574.97H864.252V431.793ZM1439.5 431.793H1296.13V574.97H1439.5V431.793ZM0.503643 575.557H143.874V718.733H0.503643V575.557ZM575.748 575.557H432.378V718.733H575.748V575.557ZM576.336 575.557H719.706V718.733H576.336V575.557ZM863.664 575.557H720.293V718.733H863.664V575.557ZM864.252 575.557H1007.62V718.733H864.252V575.557ZM1151.58 575.557H1008.21V718.733H1151.58V575.557ZM1152.17 575.557H1295.54V718.733H1152.17V575.557ZM1439.5 575.557H1296.13V718.733H1439.5V575.557ZM0.503643 719.32H143.874V862.497H0.503643V719.32ZM287.832 719.32H144.462V862.497H287.832V719.32ZM288.419 719.32H431.79V862.497H288.419V719.32ZM575.748 719.32H432.378V862.497H575.748V719.32ZM576.336 719.32H719.706V862.497H576.336V719.32ZM863.664 719.32H720.293V862.497H863.664V719.32ZM864.252 719.32H1007.62V862.497H864.252V719.32ZM1151.58 719.32H1008.21V862.497H1151.58V719.32ZM1152.17 719.32H1295.54V862.497H1152.17V719.32ZM1439.5 719.32H1296.13V862.497H1439.5V719.32Z" fill="url(#paint0_radial_2508_3620)" fill-opacity="0.6"/>
<defs>
<radialGradient id="paint0_radial_2508_3620" cx="0" cy="0" r="1" gradientUnits="userSpaceOnUse" gradientTransform="translate(720 -484.378) rotate(90) scale(1238.64 2066.8)">
<stop/>
<stop offset="1" stop-opacity="0.67"/>
</radialGradient>
</defs>
</svg>
