<svg width="1440" height="702" viewBox="0 0 1440 702" fill="none" xmlns="http://www.w3.org/2000/svg">
<g opacity="0.35" clip-path="url(#clip0_367_1072)">
<path d="M1605.65 -403.235C1549.25 -384.04 1438.02 -300.437 1444.28 -119.582C1452.1 106.487 1622.71 247.958 1665.37 461.23C1696.85 618.641 1692.38 1012.9 1500.44 1178.54" stroke="#6B9044" stroke-width="7.78561"/>
<path d="M1524.43 -364.735C1468.03 -345.541 1356.79 -261.938 1363.05 -81.0825C1370.87 144.986 1541.49 286.457 1584.14 499.73C1615.63 657.141 1611.16 1051.4 1419.21 1217.04" stroke="#6B9044" stroke-width="7.78561"/>
<path d="M1442.11 -328.637C1385.71 -309.442 1274.47 -225.839 1280.73 -44.9841C1288.55 181.085 1459.17 322.556 1501.82 535.828C1533.31 693.239 1528.84 1087.49 1336.89 1253.14" stroke="#6B9044" stroke-width="7.78561"/>
<path d="M1358.66 -295.213C1302.27 -276.018 1191.03 -192.415 1197.29 -11.5601C1205.11 214.509 1375.73 355.98 1418.38 569.252C1449.86 726.663 1445.4 1120.92 1253.45 1286.56" stroke="#6B9044" stroke-width="7.78561"/>
<path d="M1274.07 -264.811C1217.68 -245.616 1106.44 -162.013 1112.7 18.8418C1120.52 244.911 1291.14 386.382 1333.79 599.654C1365.27 757.065 1360.81 1151.32 1168.86 1316.96" stroke="#6B9044" stroke-width="7.78561"/>
<path d="M1188.32 -237.873C1131.92 -218.678 1020.69 -135.076 1026.94 45.7797C1034.76 271.849 1205.38 413.319 1248.04 626.592C1279.52 784.003 1275.05 1178.26 1083.1 1343.9" stroke="#6B9044" stroke-width="7.78561"/>
<path d="M1101.4 -214.957C1045 -195.762 933.77 -112.16 940.026 68.6955C947.846 294.765 1118.46 436.235 1161.12 649.508C1192.6 806.919 1188.13 1201.17 996.188 1366.81" stroke="#6B9044" stroke-width="7.78561"/>
<path d="M1013.37 -196.773C956.974 -177.578 845.741 -93.9755 851.997 86.8797C859.817 312.949 1030.43 454.419 1073.09 667.692C1104.57 825.103 1100.1 1219.36 908.159 1385" stroke="#6B9044" stroke-width="7.78561"/>
<path d="M924.367 -184.221C867.968 -165.026 756.735 -81.4233 762.991 99.4319C770.811 325.501 941.429 466.972 984.083 680.244C1015.57 837.655 1011.1 1231.91 819.153 1397.55" stroke="#6B9044" stroke-width="7.78561"/>
<path d="M834.667 -178.429C778.268 -159.235 667.034 -75.6317 673.29 105.223C681.11 331.292 851.728 472.763 894.383 686.036C925.865 843.447 921.397 1237.7 729.452 1403.34" stroke="#6B9044" stroke-width="7.78561"/>
<path d="M744.81 -180.785C688.411 -161.591 577.178 -77.988 583.434 102.867C591.254 328.936 761.872 470.407 804.526 683.68C836.009 841.091 831.541 1235.34 639.596 1400.99" stroke="#6B9044" stroke-width="7.78561"/>
<path d="M655.742 -192.891C599.343 -173.697 488.109 -90.0941 494.365 90.7611C502.185 316.83 672.804 458.301 715.458 671.574C746.94 828.985 742.473 1223.24 550.527 1388.88" stroke="#6B9044" stroke-width="7.78561"/>
<path d="M568.976 -216.378C512.577 -197.184 401.344 -113.581 407.6 67.2744C415.42 293.343 586.038 434.814 628.692 648.087C660.175 805.498 655.707 1199.75 463.762 1365.39" stroke="#6B9044" stroke-width="7.78561"/>
<path d="M471.734 -258.82C415.336 -239.625 304.102 -156.022 310.358 24.833C318.178 250.902 488.796 392.373 531.451 605.645C562.933 763.057 558.465 1157.31 366.52 1322.95" stroke="#6B9044" stroke-width="7.78561"/>
<path d="M388.419 -292.559C332.02 -273.365 220.787 -189.762 227.043 -8.90651C234.863 217.162 405.481 358.633 448.135 571.906C479.618 729.317 475.15 1123.57 283.205 1289.21" stroke="#6B9044" stroke-width="7.78561"/>
<path d="M302.602 -319.3C246.204 -300.105 134.97 -216.503 141.226 -35.6474C149.046 190.422 319.664 331.892 362.319 545.165C393.801 702.576 389.333 1096.83 197.388 1262.47" stroke="#6B9044" stroke-width="7.78561"/>
<path d="M214.872 -338.877C158.474 -319.682 47.2401 -236.079 53.4961 -55.2243C61.3161 170.845 231.934 312.316 274.589 525.588C306.071 682.999 301.603 1077.25 109.658 1242.9" stroke="#6B9044" stroke-width="7.78561"/>
<path d="M125.846 -351.293C69.4472 -332.098 -41.7863 -248.495 -35.5303 -67.6401C-27.7103 158.429 142.908 299.9 185.562 513.172C217.045 670.583 212.577 1064.84 20.6316 1230.48" stroke="#6B9044" stroke-width="7.78561"/>
<path d="M36.1226 -356.703C-20.2761 -337.508 -131.51 -253.906 -125.254 -73.0504C-117.434 153.019 53.1845 294.489 95.839 507.762C127.321 665.173 122.854 1059.43 -69.0918 1225.07" stroke="#6B9044" stroke-width="7.78561"/>
<path d="M-53.7553 -355.386C-110.154 -336.191 -221.388 -252.588 -215.132 -71.7332C-207.312 154.336 -36.6935 295.807 5.96105 509.079C37.4433 666.49 32.9756 1060.74 -158.97 1226.39" stroke="#6B9044" stroke-width="7.78561"/>
</g>
<defs>
<clipPath id="clip0_367_1072">
<rect width="2400" height="960" fill="white" transform="translate(-480 -129)"/>
</clipPath>
</defs>
</svg>
