<svg width="511" height="783" viewBox="0 0 511 783" fill="none" xmlns="http://www.w3.org/2000/svg">
<path fill-rule="evenodd" clip-rule="evenodd" d="M510.702 50.2254V-34.7017H425.924V41.4269L434.707 50.2254H510.702ZM425.924 59.2585L434.594 50.5735H510.702V135.501H425.924V59.2585ZM417.036 50.5735L425.577 59.1292V135.501H340.799V50.5735H417.036ZM425.577 41.5563L416.923 50.2254H340.799V-34.7017H425.577V41.5563ZM511 -35H425.875H425.627H340.75H340.501H255.624H255.376H170.499H170.251H85.3735H85.1254H0V50.2752V50.5237V135.55V135.799V220.825V221.074V306.101V306.349V391.375V391.624V476.651V476.899V561.926V562.174V647.201V647.45V732.476V732.725V818L85.1254 818H170.251H170.499H255.624H340.501H425.627H425.875H511V732.725V732.476V647.45V647.201V562.174V561.926V476.899V476.651V391.624V391.375V306.349V306.101V221.074V220.825V135.799V135.55V50.5237V50.2752V-35ZM510.702 135.848V220.776H425.924V135.848H510.702ZM510.702 306.051V221.124H425.924V306.051H510.702ZM510.702 306.399V391.326H425.924V306.399H510.702ZM510.702 476.601V391.674H425.924V476.601H510.702ZM510.702 476.949V561.876H425.924V476.949H510.702ZM510.702 647.151V562.224H425.924V647.151H510.702ZM510.702 647.499V732.426H425.924V647.499H510.702ZM510.702 817.702V732.775H425.924V817.702H510.702ZM425.577 135.848V220.776H340.799V135.848H425.577ZM425.577 306.051V221.124H340.799V297.508L349.326 306.051H425.577ZM340.799 314.805L349.19 306.399H425.577V391.326H340.799V314.805ZM331.655 306.399L340.423 315.182L340.452 315.153V391.326H255.674V306.399H331.655ZM340.452 297.16L340.423 297.131L331.519 306.051H255.674V221.124H340.452V297.16ZM425.577 476.601V391.674H340.799V476.601H425.577ZM425.577 476.949V561.876H340.799V476.949H425.577ZM425.577 647.151V562.224H340.799V647.151H425.577ZM425.577 647.499V732.426H364.319L364.175 732.282L340.799 708.865V647.499H425.577ZM340.452 708.517V647.499H264.026L264.311 647.785L255.674 656.436V732.426H316.526L316.67 732.282L340.193 708.718L340.423 708.488L340.452 708.517ZM316.986 732.426L340.423 708.949L340.452 708.978V723.517L340.423 723.487L331.499 732.426H316.986ZM316.701 732.774H255.674V817.701H340.452V756.508L340.423 756.537L340.193 756.307L316.701 732.774ZM340.452 756.047L340.423 756.077L317.161 732.774H331.675L340.423 741.538L340.452 741.509V756.047ZM340.799 756.16V817.702H425.577V732.775H364.144L340.799 756.16ZM363.684 732.775L340.799 755.7V741.161L349.171 732.775H363.684ZM363.859 732.426L340.799 709.326V723.864L349.346 732.426H363.859ZM246.577 647.499L246.292 647.785L255.301 656.81L255.326 656.785V732.426H170.549V647.499H246.577ZM255.326 638.784L255.301 638.759L246.924 647.151H170.549V562.224H255.326V638.784ZM263.678 647.151L255.674 639.133V562.224H340.452V647.151H263.678ZM340.452 -34.7017V50.2254H255.674V-34.7017H340.452ZM340.452 135.501V50.5735H255.674V135.501H340.452ZM340.452 135.848V220.776H255.674V135.848H340.452ZM340.452 476.601V391.674H255.674V476.601H340.452ZM340.452 476.949V561.876H255.674V476.949H340.452ZM255.326 -34.7017V50.2254H170.549V-34.7017H255.326ZM255.326 135.501V50.5735H170.549V112.035L170.659 111.924L170.889 112.155L194.194 135.501H255.326ZM193.734 135.501L170.659 112.385L170.549 112.496V127.034L170.659 126.924L179.22 135.501H193.734ZM179.568 135.848H194.081L194.181 135.949L170.659 159.513L170.549 159.403V144.864L170.659 144.974L179.668 135.949L179.568 135.848ZM161.75 135.848L161.649 135.949L170.201 144.516V159.054L147.136 135.949L147.237 135.848H161.75ZM170.201 127.383L162.097 135.501H147.584L170.201 112.844V127.383ZM170.201 112.383V50.5735H85.4232V135.501H147.124L170.201 112.383ZM146.777 135.848H85.4232V220.776H170.201V159.515L146.906 136.18L146.676 135.949L146.777 135.848ZM170.549 159.863V220.776H255.326V135.848H194.541L194.641 135.949L194.411 136.18L170.889 159.743L170.659 159.974L170.549 159.863ZM255.326 306.051V221.124H170.549V306.051H255.326ZM255.326 306.399V391.326H170.549V306.399H255.326ZM255.326 476.601V391.674H170.549V476.601H255.326ZM255.326 476.949V561.876H170.549V476.949H255.326ZM255.326 817.702V732.775H170.549V817.702H255.326ZM170.201 -34.7017V50.2254H85.4232V-34.7017H170.201ZM170.201 306.051V221.124H85.4232V306.051H170.201ZM170.201 306.399V391.326H85.4232V306.399H170.201ZM170.201 476.601V391.674H85.4232V476.601H170.201ZM170.201 476.949V561.876H85.4232V476.949H170.201ZM170.201 647.151V562.224H85.4232V647.151H170.201ZM170.201 647.499V732.426H85.4232V647.499H170.201ZM170.201 817.702V732.775H85.4232V817.702H170.201ZM85.0757 -34.7017V50.2254H0.297821V-34.7017H85.0757ZM85.0757 135.501V50.5735H0.297821V135.501H85.0757ZM85.0757 135.848V220.776H0.297821V135.848H85.0757ZM85.0757 306.051V221.124H0.297821V306.051H85.0757ZM85.0757 306.399V391.326H0.297821V306.399H85.0757ZM85.0757 476.601V391.674H0.297821V476.601H85.0757ZM85.0757 476.949V561.876H0.297821V476.949H85.0757ZM85.0757 647.151V562.224H0.297821V647.151H85.0757ZM85.0757 647.499V732.426H0.297821V647.499H85.0757ZM85.0757 817.701V732.774H0.297821V817.701H85.0757Z" fill="url(#paint0_linear_965_1396)" fill-opacity="0.6"/>
<defs>
<linearGradient id="paint0_linear_965_1396" x1="1531.24" y1="391.5" x2="64.3837" y2="391.5" gradientUnits="userSpaceOnUse">
<stop stop-color="#426731"/>
<stop offset="1" stop-color="#6B9044"/>
</linearGradient>
</defs>
</svg>
